<?xml version="1.0" encoding="utf-8"?>
<!-- Generator: Adobe Illustrator 27.7.0, SVG Export Plug-In . SVG Version: 6.00 Build 0)  -->
<svg version="1.1" id="_x2018_лой_x5F_1" xmlns="http://www.w3.org/2000/svg" xmlns:xlink="http://www.w3.org/1999/xlink"
	 x="0px" y="0px" viewBox="0 0 2556.3 1458.7" style="enable-background:new 0 0 2556.3 1458.7;" xml:space="preserve">
<style type="text/css">
	.st0{fill:#EBF3FA;}
	.st1{opacity:0.4;fill:#CDDFF9;}
	.st2{fill:#CDDFF9;}
	.st3{fill:#DFEBFD;}
	.st4{opacity:0.5;}
	.st5{fill:#AAC9F5;}
	.st6{fill:#CDE0FB;}
	.st7{fill:#2B478B;}
	.st8{fill:#DDE7FE;}
	.st9{fill:#AEC3FF;}
	.st10{fill:#233862;}
	.st11{fill:#FFB27D;}
	.st12{fill:#ED985F;}
	.st13{fill:#2C3A64;}
	.st14{fill:#F99746;}
	.st15{fill:#FFFFFF;}
	.st16{fill:#CFDEFF;}
	.st17{fill:#1F1F89;}
	.st18{fill:#F78248;}
	.st19{fill:#F77D48;}
	.st20{fill:#FFB93E;}
	.st21{fill:#FFA412;}
	.st22{fill:#FFEDDC;}
	.st23{fill:#DB6A1D;}
	.st24{fill:#E5C1A1;}
	.st25{fill:#F9DDBF;}
	.st26{opacity:0.5;fill:#E2810E;}
	.st27{fill:#E2810E;}
	.st28{fill:#ED7D2B;}
	.st29{fill:#ED975D;}
	.st30{fill:#8EA3ED;}
	.st31{fill:#2A539B;}
	.st32{fill:#4075C1;}
	.st33{fill:#163560;}
	.st34{fill:#D35B31;}
	.st35{fill:#E8945B;}
	.st36{fill:#2E3552;}
</style>
<g>
	<path class="st0" d="M131.8,1454.3c0,0-285.5-273.2,4.1-668.8C394.6,432,201.5,263.2,467,90.9c268.4-174.1,496.8-68.1,753.7,66.5
		c256.9,134.6,611.7-187.6,995.1-16.3c383.3,171.3,328.2,433.1,233.4,702.3c-80,227.2,163.4,391.4,30.6,611.3
		C2479.8,1454.7,123.7,1446.2,131.8,1454.3z"/>
	<path class="st1" d="M1603.5,462.5c0,0,40.4-169.5,175.4-187.8c0,0,26.3-3.2,34.9,25.8c8.7,28.9-43.5,29-75.8,40.6
		C1705.7,352.6,1630.4,401.8,1603.5,462.5z"/>
	<path class="st1" d="M1606,494.6c0,0,77.4-156.1,213.1-143.6c0,0,26.3,2.8,28.3,33c2,30.1-48.9,18.5-83,22.5
		C1730.3,410.5,1645.8,441.5,1606,494.6z"/>
	<path class="st2" d="M2013.4,1144.7c0,0,40.4-169.5,175.4-187.8c0,0,26.3-3.2,34.9,25.8c8.7,28.9-43.5,29-75.8,40.6
		C2115.6,1034.8,2040.3,1083.9,2013.4,1144.7z"/>
	<path class="st3" d="M2017.8,1089.1c0,0-22.2-172.8,97.6-237.7c0,0,23.4-12.2,41.8,11.7c18.4,24-30.5,42.5-56.6,64.8
		C2074.5,950.1,2021.4,1022.7,2017.8,1089.1z"/>
	<path class="st3" d="M2423,1124.8c-15.2-64.7-124.2-48.3-124.2-48.3s-77.3,109.7-98.8,111.6c-21.5,1.9,47.8-106.6,47.8-106.6
		c-41.3-5.4-148.6,41.8-148.6,41.8s2.3,131.1-19,127.7c-21.3-3.4,3.9-116.1,3.9-116.1c-40.5,10.7-79.5,56.1-79.5,56.1
		c-49.3,74.5,49,134,49,134s-0.2,45.4-30,96.6l0,0c0,0-6.7,9.4-13.6,25.5l10.9,0.4c1-2.9,2.1-5.7,3.3-8.4c0,0,0,0,0,0
		c0,0,0-0.1,0.1-0.1c0.8-1.7,2-4,3.4-6.9c0,0,0,0,0,0c0,0,0,0,0,0c3.6-6.4,6-11.2,7.5-14.6c0,0,0,0,0,0c10.7-20.2,26-46.4,35.8-51.7
		c0,0-1.2-1.7-2.2-5.1c0.7,1.6,1.4,3.3,2.2,5.1c17.4,40.7,110.7,50.5,163.2,41.6c52.5-8.9,30.3-24.4,3-49.2
		c-27.3-24.8-86.3-20.5-103.4-30.4c-17.1-9.9,8.6-18.4,43.3-14.6c34.7,3.8,50.9,39.1,106.8,46.4c56,7.2,102.3-96.8,102.3-96.8
		c-39.2,10.7-108-13-110.2-26.4c-2.2-13.4,100.7-8.6,116.8-12.1C2409,1220.6,2438.2,1189.5,2423,1124.8z"/>
	<path class="st3" d="M419.7,555.8c15.2-64.7,124.2-48.3,124.2-48.3s77.3,109.7,98.8,111.6c21.5,1.9-47.8-106.6-47.8-106.6
		c41.3-5.4,148.6,41.8,148.6,41.8s-2.3,131.1,19,127.7c21.3-3.4-3.9-116.1-3.9-116.1c40.5,10.7,79.5,56.1,79.5,56.1
		c49.3,74.5-49,134-49,134s0.2,45.4,30,96.6c0,0,0,0,0,0s6.7,9.4,13.6,25.5l-10.9,0.4c-1-2.9-2.1-5.7-3.3-8.4c0,0,0,0,0,0
		c0,0,0-0.1-0.1-0.1c-0.8-1.7-2-4-3.4-6.9c0,0,0,0,0,0c0,0,0,0,0,0c-3.6-6.4-6-11.2-7.5-14.6c0,0,0,0,0,0
		c-10.7-20.2-26-46.4-35.8-51.7c0,0,1.2-1.7,2.2-5.1c-0.7,1.6-1.4,3.3-2.2,5.1c-17.4,40.7-110.7,50.5-163.2,41.6
		c-52.5-8.9-30.3-24.4-3-49.2c27.3-24.8,86.3-20.5,103.4-30.4c17.1-9.9-8.6-18.4-43.3-14.6s-50.9,39.1-106.8,46.4
		c-56,7.2-102.3-96.8-102.3-96.8c39.2,10.7,108-13,110.2-26.4c2.2-13.4-100.7-8.6-116.8-12.1C433.6,651.6,404.4,620.5,419.7,555.8z"
		/>
	<path class="st3" d="M1082.2,239.8c32-61.3,137.6-16.7,137.6-16.7s49.7,130.4,70.8,137.9c21.1,7.5-20.7-119.8-20.7-119.8
		c43,5.2,139.1,80.4,139.1,80.4s-36,131.5-13.7,133.6c22.3,2.1,25.9-118.1,25.9-118.1c38.1,21.2,65.7,77,65.7,77
		c30.6,87.8-83.9,122.4-83.9,122.4s-11.5,45.9,5.4,105.1l0,0c0,0,4.3,11.2,7.2,29.2l-11.1-2.4c-0.3-3.2-0.6-6.3-1.1-9.3
		c0,0,0,0,0-0.1c0,0,0-0.1,0-0.1c-0.4-1.9-0.9-4.6-1.7-7.8c0,0,0,0,0,0c0,0,0,0,0,0c-1.9-7.4-3.2-12.8-3.8-16.7c0,0,0,0,0,0
		c-5.6-23.1-14.3-53.5-22.8-61.3c0,0,1.6-1.5,3.5-4.6c-1.1,1.5-2.3,3-3.5,4.6c-28,36.5-124.6,22.4-175.2-0.1
		c-50.6-22.5-24.2-32.4,9.6-50.3c33.9-18,92.3,1.6,112-4.1c19.8-5.6-4-20.8-39.9-25.8c-35.9-5-61.4,26.4-119.6,19.2
		s-78.2-123.9-78.2-123.9c36.7,20.9,112.2,14.7,117.9,1.7c5.7-13-99.2-34.6-114.7-42.3S1050.2,301.1,1082.2,239.8z"/>
	<g class="st4">
		<path class="st5" d="M2351.2,331.3l61.8,236.3c2.7,10.4-3.6,21.2-14,23.9l-414.6,108.4c-10.4,2.7-21.2-3.6-23.9-14l-61.8-236.3
			c-2.7-10.4,3.6-21.2,14-23.9l414.6-108.4C2337.7,314.6,2348.4,320.9,2351.2,331.3z"/>
		<g>
			<path class="st6" d="M2179.3,598.5l-110.5,28.9c-4.7,1.2-9.5-1.6-10.7-6.3l-0.3-1.1c-1.2-4.7,1.6-9.5,6.3-10.7l110.5-28.9
				c4.7-1.2,9.5,1.6,10.7,6.3l0.3,1.1C2186.8,592.4,2183.9,597.3,2179.3,598.5z"/>
			<g>
				<path class="st6" d="M2121.4,490.6c1.1,4,1.2,7.5,0.5,10.5c-0.9,3.7-3.2,6-6.9,7c-3.7,1-6.8,0.1-9.5-2.7
					c-2.1-2.2-3.6-5.3-4.7-9.4c-1.1-4-1.2-7.5-0.5-10.4c0.9-3.7,3.2-6.1,7-7c3.7-1,6.9-0.1,9.5,2.7
					C2118.8,483.5,2120.4,486.6,2121.4,490.6z M2116.4,491.9c-0.7-2.5-1.5-4.6-2.5-6.1c-1.6-2.3-3.3-3.3-5.3-2.7
					c-2.1,0.5-3.2,2.2-3.4,5c-0.1,1.9,0.1,4.1,0.8,6.6c1.8,6.9,4.5,9.9,8,8.9c2-0.5,3.1-2.2,3.3-5
					C2117.3,496.7,2117.1,494.5,2116.4,491.9z"/>
				<path class="st6" d="M2144.1,484.7c1.1,4,1.2,7.5,0.5,10.5c-0.9,3.7-3.2,6-6.9,7c-3.7,1-6.8,0.1-9.5-2.7
					c-2.1-2.2-3.6-5.3-4.7-9.4c-1.1-4-1.2-7.5-0.5-10.4c0.9-3.7,3.2-6.1,7-7c3.7-1,6.9-0.1,9.5,2.7
					C2141.5,477.6,2143.1,480.7,2144.1,484.7z M2139.1,486c-0.7-2.5-1.5-4.6-2.5-6.1c-1.6-2.3-3.3-3.3-5.3-2.7
					c-2.1,0.5-3.2,2.2-3.4,5c-0.1,1.9,0.1,4.1,0.8,6.6c1.8,6.9,4.5,9.9,8,8.9c2-0.5,3.1-2.2,3.3-5
					C2140,490.8,2139.7,488.6,2139.1,486z"/>
				<path class="st6" d="M2178.5,475.7c1.1,4,1.2,7.5,0.5,10.5c-0.9,3.7-3.2,6-6.9,7c-3.7,1-6.8,0.1-9.5-2.7
					c-2.1-2.2-3.6-5.3-4.7-9.4c-1.1-4-1.2-7.5-0.5-10.4c0.9-3.7,3.2-6.1,7-7c3.7-1,6.9-0.1,9.5,2.7
					C2175.9,468.6,2177.5,471.7,2178.5,475.7z M2173.4,477c-0.7-2.5-1.5-4.6-2.5-6.1c-1.6-2.3-3.3-3.3-5.3-2.7
					c-2.1,0.5-3.2,2.2-3.4,5c-0.1,1.9,0.1,4.1,0.8,6.6c1.8,6.9,4.4,9.9,8,8.9c2-0.5,3.1-2.2,3.3-5
					C2174.4,481.8,2174.1,479.6,2173.4,477z"/>
				<path class="st6" d="M2201.2,469.8c1.1,4,1.2,7.5,0.5,10.5c-0.9,3.7-3.2,6-6.9,7c-3.7,1-6.8,0.1-9.5-2.7
					c-2.1-2.2-3.6-5.3-4.7-9.4c-1.1-4-1.2-7.5-0.5-10.4c0.9-3.7,3.2-6.1,7-7c3.7-1,6.9-0.1,9.5,2.7
					C2198.6,462.6,2200.2,465.8,2201.2,469.8z M2196.1,471.1c-0.7-2.5-1.5-4.6-2.5-6.1c-1.6-2.3-3.3-3.3-5.3-2.7
					c-2.1,0.5-3.2,2.2-3.4,5c-0.1,1.9,0.1,4.1,0.8,6.6c1.8,6.9,4.4,9.9,8,8.9c2-0.5,3.1-2.2,3.3-5
					C2197.1,475.9,2196.8,473.7,2196.1,471.1z"/>
				<path class="st6" d="M2223.9,463.8c1.1,4,1.2,7.5,0.5,10.5c-0.9,3.7-3.2,6-6.9,7c-3.7,1-6.8,0.1-9.5-2.7
					c-2.1-2.2-3.6-5.3-4.7-9.4c-1.1-4-1.2-7.5-0.5-10.4c0.9-3.7,3.2-6.1,7-7c3.7-1,6.9-0.1,9.5,2.7
					C2221.3,456.7,2222.8,459.8,2223.9,463.8z M2218.8,465.2c-0.7-2.5-1.5-4.6-2.5-6.1c-1.6-2.3-3.3-3.3-5.3-2.7
					c-2.1,0.5-3.2,2.2-3.4,5c-0.1,1.9,0.1,4.1,0.8,6.6c1.8,6.9,4.5,9.9,8,8.9c2-0.5,3.1-2.2,3.3-5
					C2219.8,469.9,2219.5,467.7,2218.8,465.2z"/>
				<path class="st6" d="M2246.6,457.9c1.1,4,1.2,7.5,0.5,10.5c-0.9,3.7-3.2,6-6.9,7c-3.7,1-6.8,0.1-9.5-2.7
					c-2.1-2.2-3.6-5.3-4.7-9.4c-1.1-4-1.2-7.5-0.5-10.4c0.9-3.7,3.2-6.1,7-7c3.7-1,6.9-0.1,9.5,2.7
					C2244,450.8,2245.5,453.9,2246.6,457.9z M2241.5,459.2c-0.7-2.5-1.5-4.6-2.5-6.1c-1.6-2.3-3.3-3.3-5.3-2.7
					c-2.1,0.5-3.2,2.2-3.4,5c-0.1,1.9,0.1,4.1,0.8,6.6c1.8,6.9,4.4,9.9,8,8.9c2-0.5,3.1-2.2,3.3-5
					C2242.5,464,2242.2,461.8,2241.5,459.2z"/>
				<path class="st6" d="M2281,448.9c1.1,4,1.2,7.5,0.5,10.5c-0.9,3.7-3.2,6-6.9,7c-3.7,1-6.8,0.1-9.5-2.7c-2.1-2.2-3.6-5.3-4.7-9.4
					c-1.1-4-1.2-7.5-0.5-10.4c0.9-3.7,3.2-6.1,7-7c3.7-1,6.9-0.1,9.5,2.7C2278.4,441.8,2279.9,444.9,2281,448.9z M2275.9,450.2
					c-0.7-2.5-1.5-4.6-2.5-6.1c-1.6-2.3-3.3-3.3-5.3-2.7c-2.1,0.5-3.2,2.2-3.4,5c-0.1,1.9,0.1,4.1,0.8,6.6c1.8,6.9,4.4,9.9,8,8.9
					c2-0.5,3.1-2.2,3.3-5C2276.8,455,2276.6,452.8,2275.9,450.2z"/>
				<path class="st6" d="M2303.6,443c1.1,4,1.2,7.5,0.5,10.5c-0.9,3.7-3.2,6-6.9,7c-3.7,1-6.8,0.1-9.5-2.7c-2.1-2.2-3.6-5.3-4.7-9.4
					c-1.1-4-1.2-7.5-0.5-10.4c0.9-3.7,3.2-6.1,7-7c3.7-1,6.9-0.1,9.5,2.7C2301,435.9,2302.6,439,2303.6,443z M2298.6,444.3
					c-0.7-2.5-1.5-4.6-2.5-6.1c-1.6-2.3-3.3-3.3-5.3-2.7c-2.1,0.5-3.2,2.2-3.4,5c-0.1,1.9,0.1,4.1,0.8,6.6c1.8,6.9,4.4,9.9,8,8.9
					c2-0.5,3.1-2.2,3.3-5C2299.5,449.1,2299.3,446.9,2298.6,444.3z"/>
				<path class="st6" d="M2326.3,437.1c1.1,4,1.2,7.5,0.5,10.5c-0.9,3.7-3.2,6-6.9,7c-3.7,1-6.8,0.1-9.5-2.7
					c-2.1-2.2-3.6-5.3-4.7-9.4c-1.1-4-1.2-7.5-0.5-10.4c0.9-3.7,3.2-6.1,7-7c3.7-1,6.9-0.1,9.5,2.7
					C2323.7,429.9,2325.3,433,2326.3,437.1z M2321.3,438.4c-0.7-2.5-1.5-4.6-2.5-6.1c-1.6-2.3-3.3-3.3-5.3-2.7
					c-2.1,0.5-3.2,2.2-3.4,5c-0.1,1.9,0.1,4.1,0.8,6.6c1.8,6.9,4.4,9.9,8,8.9c2-0.5,3.1-2.2,3.3-5
					C2322.2,443.2,2321.9,441,2321.3,438.4z"/>
				<path class="st6" d="M2349,431.1c1.1,4,1.2,7.5,0.5,10.5c-0.9,3.7-3.2,6-6.9,7c-3.7,1-6.8,0.1-9.5-2.7c-2.1-2.2-3.6-5.3-4.7-9.4
					c-1.1-4-1.2-7.5-0.5-10.4c0.9-3.7,3.2-6.1,7-7c3.7-1,6.9-0.1,9.5,2.7C2346.4,424,2348,427.1,2349,431.1z M2344,432.4
					c-0.7-2.5-1.5-4.6-2.5-6.1c-1.6-2.3-3.3-3.3-5.3-2.7c-2.1,0.5-3.2,2.2-3.4,5c-0.1,1.9,0.1,4.1,0.8,6.6c1.8,6.9,4.4,9.9,8,8.9
					c2-0.5,3.1-2.2,3.3-5C2344.9,437.2,2344.6,435,2344,432.4z"/>
			</g>
			<path class="st6" d="M2049.9,428.4l-108.1,28.3c-4.7,1.2-9.5-1.6-10.7-6.3l0,0c-1.2-4.7,1.6-9.5,6.3-10.7l108.1-28.3
				c4.7-1.2,9.5,1.6,10.7,6.3l0,0C2057.4,422.3,2054.5,427.2,2049.9,428.4z"/>
			<g>
				<g>
					<path class="st6" d="M2311.5,379.3c-0.8-3.1-2.6-5.6-5-7.4c-0.7-0.5-1.7-0.3-2.1,0.4l-0.4,0.6c-0.4,0.6-0.2,1.4,0.4,1.8
						c1.7,1.3,3,3.2,3.6,5.4c0.6,2.2,0.4,4.5-0.5,6.5c-0.3,0.7,0,1.4,0.6,1.8l0.6,0.4c0.7,0.4,1.7,0.1,2.1-0.6
						C2311.9,385.5,2312.3,382.4,2311.5,379.3z"/>
				</g>
				<g>
					<path class="st6" d="M2318.5,377.5c-1.3-5.1-4.4-9.2-8.5-11.9c-0.7-0.5-1.6-0.2-2,0.5l-0.2,0.4c-0.4,0.7-0.2,1.5,0.5,1.9
						c3.4,2.3,6,5.8,7.1,10c1.1,4.2,0.6,8.5-1.3,12.2c-0.3,0.7-0.1,1.5,0.5,1.9l0.4,0.2c0.7,0.4,1.6,0.2,2-0.6
						C2319.1,387.7,2319.8,382.6,2318.5,377.5z"/>
				</g>
				<g>
					<path class="st6" d="M2324.6,375.9c-1.8-6.8-6-12.3-11.5-15.9c-0.7-0.4-1.6-0.2-2,0.5l0,0c-0.4,0.7-0.2,1.5,0.5,1.9
						c4.9,3.2,8.7,8.1,10.2,14.2c1.6,6.1,0.7,12.2-2,17.4c-0.4,0.7-0.1,1.5,0.5,1.9l0,0c0.7,0.4,1.6,0.2,2-0.6
						C2325.4,389.6,2326.4,382.7,2324.6,375.9z"/>
				</g>
				<g>
					<path class="st6" d="M2331.3,374.2c-2.3-8.6-7.7-15.6-14.7-20.1c-0.7-0.4-1.6-0.2-2,0.5l-0.4,0.6c-0.4,0.7-0.2,1.5,0.5,1.9
						c6.3,4,11.1,10.2,13.1,17.9c2,7.7,0.9,15.5-2.6,22.1c-0.4,0.7-0.1,1.5,0.5,1.9l0.6,0.4c0.7,0.4,1.6,0.2,2-0.6
						C2332.2,391.6,2333.5,382.8,2331.3,374.2z"/>
				</g>
			</g>
		</g>
	</g>
	<g>
		<path class="st7" d="M2007.6,1428.7H707.9c-18.6,0-33.8-15.2-33.8-33.8V534.2c0-18.6,15.2-33.8,33.8-33.8h1299.7
			c18.6,0,33.8,15.2,33.8,33.8v860.7C2041.4,1413.5,2026.2,1428.7,2007.6,1428.7z"/>
		<rect x="705" y="532.8" class="st8" width="1305.6" height="886.4"/>
		<path class="st7" d="M2179.7,1452H535.8c-13.4,0-24.3-10.9-24.3-24.3v-10.8c0-13.4,10.9-24.3,24.3-24.3h1643.8
			c13.4,0,24.3,10.9,24.3,24.3v10.8C2204,1441.1,2193.1,1452,2179.7,1452z"/>
		<rect x="705" y="532.8" class="st9" width="1305.6" height="862.8"/>
	</g>
	<g>
		<path class="st10" d="M269.5,1456.3c0,0,0-12.8,1.9-17c1.9-4.2,9-21.5,9-21.5h27.6c0,0,5.1,15.8,5.5,20.9c0.3,5.2,0,17.6,0,17.6
			H269.5z"/>
		<path class="st10" d="M444.9,1456.3c0,0,0-12.8-1.9-17c-1.9-4.2-9-21.5-9-21.5h-27.6c0,0-5.1,15.8-5.5,20.9
			c-0.3,5.2,0,17.6,0,17.6H444.9z"/>
		<path class="st11" d="M334.2,739.3c0,0-1,28.4-4.8,41.2l-30.5,20.1l114.8,16.2l-27.4-35.7c0,0-8.3-38.1-3.9-52.2
			C386.7,714.7,334.2,739.3,334.2,739.3z"/>
		<path class="st12" d="M334.1,743.2c0,0,9.1,20.6,26.2,20.2c17.1-0.5,21-18.7,21-18.7L334.1,743.2z"/>
		<path class="st13" d="M323.9,726.5c0,0-5.5-26-9.4-33.9c-3.9-7.9-7.1-43.1,35.6-44.9c0,0,16.4,1.8,25.4-3.3c0,0,0,5.2-2.2,7
			c0,0,14.8-3.3,26.3,8.8c11.6,12.1-7.7,54.6-6.7,64.6L323.9,726.5z"/>
		<path class="st11" d="M358.3,755.5c-12.4-0.2-35.2-15.8-35.2-35.1v-30.1c0-7,5.2-12.8,11.6-12.8h47.3c6.4,0,11.6,5.8,11.6,12.8
			v28.4C393.5,738.9,372.5,755.7,358.3,755.5z"/>
		<path class="st13" d="M323.1,706.3c0,0,0.1-18.1,15.2-20.9c15.2-2.8,49.1,8.8,54-4.4c4.8-13.2-65.6-13-69.2-4.6
			C319.5,684.9,323.1,706.3,323.1,706.3z"/>
		<path class="st7" d="M273,1013.9c0,0,4.8,139.4-2.4,219c-7.2,79.5,0.1,190.2,0.1,190.2s23.1,12,48.2,0c0,0,27.5-153.7,27.3-190.2
			C345.9,1193.9,376,1020,376,1020L273,1013.9z"/>
		<path class="st7" d="M443.9,1423.1c0,0-23.1,12-48.2,0c0,0-27.5-153.7-27.3-190.2c0.1-16.4-5.2-57-11.4-98.3
			c-8.4-56.5-18.5-114.6-18.5-114.6l107-6.3c0,0-8.8,139.7-1.6,219.2C451.2,1312.4,443.9,1423.1,443.9,1423.1z"/>
		<path class="st14" d="M444.3,1037.1c0,0-45.6,8.3-87.2,8.3c-18.2,0-37.9-1.9-53.6-3.9c-17.4-2.2-29.8-4.5-29.8-4.5
			s-9.2,0.8-3.8-42.3c4.2-32.8,2.9-62.4,1.9-92.8c-0.1-3.4,0-7.4,0.2-11.9c1.8-35.5,13.1-99.4,21.8-102.9c0,0,12.9-4.5,35.6-6.7
			c0,0.4,13.2,18.7,28.9,20.7c9.7-3.6,17.4-6.7,28-20.1c13.5,1.5,28.2,4,44,8c0,0,1.6,6.8,7.8,124.3
			C440.6,959.9,457.4,1037.3,444.3,1037.1z"/>
		<path class="st10" d="M368.4,1232.9c0.1-16.4-5.2-57-11.4-98.3c6.4-24.7,22-48.4,22-48.4C398.8,1138.5,368.4,1232.9,368.4,1232.9z
			"/>
		<path class="st14" d="M229.6,927.1c-1.1,0.9,2.7,9.7,8.3,21.3c11.5,23.8,30.6,58.9,30.6,58.9c-2.8,9.9-5.8,16-5.8,16
			c-32.1-23.9-52.9-44.2-66.1-59.7c-18.6-21.9-22.4-34.4-22.4-34.4c71.6-137.6,121.9-142.7,121.9-142.7l-6,91
			C290.2,877.5,232.9,924.5,229.6,927.1z"/>
		<path class="st11" d="M264.7,1009.1c0,0,17.3-15.2,24.4-6.7c7.1,8.5,8.4,21.8,2.9,20.9c-5.5-0.9-16.7-5.8-18.3-3.3
			c-1.6,2.4-8.8,7.1-11,3.4C260.5,1019.7,264.7,1009.1,264.7,1009.1z"/>
		<path class="st11" d="M268.5,1007.3c-2.8,9.9-5.8,16-5.8,16c-32.1-23.9-52.9-44.2-66.1-59.7c10-0.7,24.5-4.1,41.3-15.2
			C249.4,972.2,268.5,1007.3,268.5,1007.3z"/>
		<path class="st14" d="M544.9,929.2c0,0-3.8,12.6-22.4,34.4c-13.2,15.6-34,35.9-66.1,59.7c0,0-3-6.1-5.8-16
			c0,0,19.1-35.1,30.6-58.9c5.6-11.6,9.4-20.5,8.3-21.3c-2.6-2-37.6-30.7-53.2-43.5c-4.5-3.7-7.4-6.1-7.4-6.1l-3.6-89.6
			C425.4,787.8,473.4,791.6,544.9,929.2z"/>
		<path class="st11" d="M454.4,1009.1c0,0-17.3-15.2-24.4-6.7c-7.1,8.5-8.4,21.8-2.9,20.9c5.5-0.9,16.7-5.8,18.3-3.3
			c1.6,2.4,8.8,7.1,11,3.4C458.6,1019.7,454.4,1009.1,454.4,1009.1z"/>
		<path class="st11" d="M450.6,1007.3c2.8,9.9,5.8,16,5.8,16c32.1-23.9,52.9-44.2,66.1-59.7c-10-0.7-24.5-4.1-41.3-15.2
			C469.7,972.2,450.6,1007.3,450.6,1007.3z"/>
		<path class="st7" d="M331,773.6c0,0-5.1,2-6.5,7.5c0,0,20.4,19.9,33.8,20.2L331,773.6z"/>
		<path class="st7" d="M358.3,801.2l26.4-28.6c0,0,5.4,3.4,5.4,9C390.1,781.5,369.6,802,358.3,801.2z"/>
		<path class="st7" d="M353.5,799.1c0,0-20.1,164.3-13.1,184.3c3.6,10.3,8.4,19.2,12.3,25.5c2.8,4.5,9.6,4.5,12.4,0
			c5.3-8.8,12.3-21.5,12.3-27.9c0-10.4-15.3-182-15.3-182L353.5,799.1z"/>
		<path class="st7" d="M348.3,791.1c0,0,12.2-1.2,19.6-0.4c1.5,0.1,2.3,1.7,1.6,2.9c-2.1,3.5-6.3,9.7-10.7,9.7
			C352.4,803.1,342.7,791.5,348.3,791.1z"/>
		<path class="st15" d="M348.4,736.1c0,0,3.9,4.9,10.6,4.8c6.7-0.2,9.9-4.8,9.9-4.8S357.6,734.3,348.4,736.1z"/>
	</g>
	<g>
		<g>
			<rect x="1012.5" y="432.3" class="st16" width="844.4" height="899.2"/>
			<g>
				<path class="st7" d="M1617.7,1180.1h-160.9c-0.1,0-0.2-0.1-0.2-0.2v-9.9c0-0.1,0.1-0.2,0.2-0.2h160.9c0.1,0,0.2,0.1,0.2,0.2v9.9
					C1617.9,1179.9,1617.8,1180.1,1617.7,1180.1z"/>
				<path class="st7" d="M1657.6,1156.3h-200.9c-0.1,0-0.2-0.1-0.2-0.2v-10c0-0.1,0.1-0.2,0.2-0.2h200.9c0.1,0,0.2,0.1,0.2,0.2v10
					C1657.9,1156.2,1657.8,1156.3,1657.6,1156.3z"/>
			</g>
			<g>
				<rect x="1085.8" y="584.1" class="st9" width="697.9" height="491"/>
				<g>
					<g>
						<rect x="1249.4" y="556.4" class="st17" width="1.1" height="518.7"/>
					</g>
					<g>
						<rect x="1686.4" y="556.4" class="st17" width="1.1" height="518.7"/>
					</g>
					<g>
						<rect x="1323.6" y="556.4" class="st17" width="1.1" height="518.7"/>
					</g>
					<g>
						<rect x="1085.8" y="983.2" class="st17" width="697.9" height="1.1"/>
					</g>
					<g>
						<rect x="1085.8" y="880.5" class="st17" width="697.9" height="1.1"/>
					</g>
					<g>
						<rect x="1085.8" y="777.7" class="st17" width="697.9" height="1.1"/>
					</g>
					<g>
						<rect x="1085.8" y="675" class="st17" width="697.9" height="1.1"/>
					</g>
				</g>
				<rect x="1085.8" y="495.3" class="st18" width="697.9" height="99.6"/>
			</g>
			<g>
				<path class="st19" d="M1717.8,1247c-15.7,4.8-31.1,7.3-43.2,6.4c-18.4-1.4-28.8-10.6-29.2-25.6c-0.3-12,4.9-22.4,15.2-30.9
					c-0.1-0.8-0.2-1.6-0.2-2.5c-0.7-8.4,1.2-14,5.7-16.7c7.2-4.2,17.9,1.6,18.3,1.8l-2.4,3.9c-2.4-1.3-9.5-4.2-13.4-1.9
					c-3.4,2-3.8,7.5-3.5,12c8.4-5.7,19.3-10.4,32.7-13.8c9.9-2.5,20.9-4.2,30.8-5c0.1-1.1,0.1-2,0.3-2.8c0.3-2.1,1.1-4.5,3.2-5
					c0.8-0.2,2.4-0.2,3.8,1.9c0.9,1.3,1.4,3.2,1.4,5.4c3.4-0.1,6.6,0,9.4,0.2c0-0.1,0.1-0.1,0.1-0.2c-0.7-5.3-0.2-11.5,0.7-15.5
					c1.2-5.2,3.2-7.8,5.9-8c1.7-0.1,3.1,0.7,3.7,2.2c1.5,3.5-1.3,13-5.5,22c0,0,0,0,0,0c3.9,0.6,6.6,1.6,7.4,3.1
					c0.6,1.1,0.7,2.7-1,4.2c-3.2,2.8-5.7,2.1-6.9,1.4c-1-0.6-1.9-1.5-2.5-2.7c-3.2,5.9-6.6,11-9.3,13.1c-2.5,2-4.7,1.2-5.5,0.8
					c-0.4-0.2-0.8-0.5-1.2-0.9c-1.1,2.5-2.3,4.9-3.6,7c-4.9,8.2-10.5,12.4-16.1,12.2c-2.3-0.1-4.3-1-6-2.5
					c-3.1,6.3-7,12.3-10.8,16.8c-3.9,4.6-8.9,6.3-14.1,4.7c-9.2-2.7-17.5-15.2-20.6-30.1c-7.8,7.2-11.6,15.8-11.4,25.6
					c0.4,12.9,8.7,20,24.8,21.3c40.7,3.2,112.1-32.5,117.5-58.8l0,0C1788.1,1211.5,1754.3,1235.9,1717.8,1247z M1665.7,1198.6
					c2.5,15.7,10.8,27.2,17.8,29.2c3.3,1,6.3-0.1,9-3.3c4.6-5.3,8.5-11.9,11.4-18.4c-0.8-1.7-1.5-3.6-2-5.8
					c-1.1-5.2-1.3-12.2,0-17.1c-7.6,1.8-15.2,4.2-22.3,7.3C1674.3,1193,1669.7,1195.7,1665.7,1198.6z M1709.2,1205.9
					c1,1.5,2.4,2.6,4.2,2.7c3.6,0.1,7.9-3.5,11.8-9.9c2-3.4,3.7-7,4.9-10.4c-0.8-2.8-1.2-6.1-1.3-9.1c-5.2,0.4-10.9,1.1-16.8,2.1
					C1714.9,1186.9,1713.1,1196.5,1709.2,1205.9z M1734.9,1188.4c0.7,2.1,1.4,2.5,1.4,2.5c2.6-2.1,5.7-6.8,8.4-12.1
					c-2.2-0.1-4.8-0.1-7.5,0C1736.8,1181.8,1736,1185.1,1734.9,1188.4z M1707.2,1182.6c-1.2,2.4-2.1,9.9-0.6,16.7
					C1709,1191.9,1709.4,1185.5,1707.2,1182.6z M1753.7,1179.8C1753.7,1179.8,1753.7,1179.8,1753.7,1179.8
					C1753.7,1179.8,1753.7,1179.8,1753.7,1179.8z M1753,1156.9c-0.4,1.1-0.8,2.8-1.1,4.7C1752.4,1159.7,1752.8,1158.1,1753,1156.9z"
					/>
			</g>
		</g>
		<g>
			<path class="st0" d="M1140.1,527.4h6.2v35.5h-6.2V527.4z"/>
			<path class="st0" d="M1155.9,527.4h5.8l19,24.6v-24.6h6.1v35.5h-5.2l-19.6-25.3v25.3h-6.1V527.4z"/>
			<path class="st0" d="M1192.9,527.4h6.9l10.7,27.3l10.7-27.3h6.8l-14.8,35.8h-5.5L1192.9,527.4z"/>
			<path class="st0" d="M1230.3,545.1c0-10,7.7-18.4,18.6-18.4c10.9,0,18.5,8.3,18.5,18.4c0,10-7.7,18.4-18.6,18.4
				S1230.3,555.2,1230.3,545.1z M1260.9,545.1c0-6.9-5-12.6-12.1-12.6s-12,5.6-12,12.6c0,6.9,5,12.6,12.1,12.6
				C1256,557.8,1260.9,552.1,1260.9,545.1z"/>
			<path class="st0" d="M1275.4,527.4h6.2v35.5h-6.2V527.4z"/>
			<path class="st0" d="M1289.5,545.1c0-10.1,7.6-18.4,18.3-18.4c6.5,0,10.5,2.3,13.9,5.5l-4,4.6c-2.8-2.6-5.9-4.4-10-4.4
				c-6.8,0-11.7,5.6-11.7,12.6c0,7,4.9,12.6,11.7,12.6c4.4,0,7.2-1.8,10.2-4.6l4,4.1c-3.7,3.9-7.8,6.3-14.4,6.3
				C1297.2,563.5,1289.5,555.4,1289.5,545.1z"/>
			<path class="st0" d="M1328.6,527.4h26.3v5.6h-20.1v9.2h17.8v5.6h-17.8v9.5h20.4v5.6h-26.6V527.4z"/>
		</g>
	</g>
	<g>
		<path class="st19" d="M959.2,1454.2l-356.7-2.2c-15.9-0.1-28.7-13.1-28.6-29l2.3-374.9c0.1-15.9,13.1-28.7,29-28.6l356.7,2.2
			c15.9,0.1,28.7,13.1,28.6,29l-2.3,374.9C988.1,1441.5,975.1,1454.3,959.2,1454.2z"/>
		<path class="st9" d="M953.8,1119.9l-341.7-2.1c-7,0-12.6-5.7-12.6-12.7l0.3-43.4c0-7,5.7-12.6,12.7-12.6l341.7,2.1
			c7,0,12.6,5.7,12.6,12.7l-0.3,43.4C966.5,1114.3,960.8,1119.9,953.8,1119.9z"/>
		<g>
			<g>
				<path class="st7" d="M726.4,1287l-29.3-0.2c-7.3,0-13.2-6-13.2-13.3l0.2-29.3c0-7.3,6-13.2,13.3-13.2l29.3,0.2
					c7.3,0,13.2,6,13.2,13.3l-0.2,29.3C739.7,1281.1,733.7,1287,726.4,1287z"/>
				<path class="st7" d="M726,1355.3l-29.3-0.2c-7.3,0-13.2-6-13.2-13.3l0.2-29.3c0-7.3,6-13.2,13.3-13.2l29.3,0.2
					c7.3,0,13.2,6,13.2,13.3l-0.2,29.3C739.3,1349.5,733.3,1355.4,726,1355.3z"/>
				<path class="st7" d="M725.6,1423.7l-29.3-0.2c-7.3,0-13.2-6-13.2-13.3l0.2-29.3c0-7.3,6-13.2,13.3-13.2l29.3,0.2
					c7.3,0,13.2,6,13.2,13.3l-0.2,29.3C738.8,1417.9,732.9,1423.8,725.6,1423.7z"/>
				<path class="st7" d="M800.1,1287.4l-29.3-0.2c-7.3,0-13.2-6-13.2-13.3l0.2-29.3c0-7.3,6-13.2,13.3-13.2l29.3,0.2
					c7.3,0,13.2,6,13.2,13.3l-0.2,29.3C813.3,1281.6,807.4,1287.5,800.1,1287.4z"/>
				<path class="st7" d="M799.6,1355.8l-29.3-0.2c-7.3,0-13.2-6-13.2-13.3l0.2-29.3c0-7.3,6-13.2,13.3-13.2l29.3,0.2
					c7.3,0,13.2,6,13.2,13.3l-0.2,29.3C812.9,1350,807,1355.9,799.6,1355.8z"/>
				<path class="st7" d="M799.2,1424.2L770,1424c-7.3,0-13.2-6-13.2-13.3l0.2-29.3c0-7.3,6-13.2,13.3-13.2l29.3,0.2
					c7.3,0,13.2,6,13.2,13.3l-0.2,29.3C812.5,1418.3,806.5,1424.2,799.2,1424.2z"/>
				<path class="st7" d="M870.7,1356.2l-29.3-0.2c-7.3,0-13.2-6-13.2-13.3l0.2-29.3c0-7.3,6-13.2,13.3-13.2l29.3,0.2
					c7.3,0,13.2,6,13.2,13.3l-0.2,29.3C883.9,1350.4,878,1356.3,870.7,1356.2z"/>
				<path class="st7" d="M870.2,1424.6l-29.3-0.2c-7.3,0-13.2-6-13.2-13.3l0.2-29.3c0-7.3,6-13.2,13.3-13.2l29.3,0.2
					c7.3,0,13.2,6,13.2,13.3l-0.2,29.3C883.5,1418.8,877.5,1424.7,870.2,1424.6z"/>
			</g>
			<g>
				<path class="st14" d="M656.6,1206.2l-29.3-0.2c-7.3,0-13.2-6-13.2-13.3l0.1-17.4c0-7.3,6-13.2,13.3-13.2l29.3,0.2
					c7.3,0,13.2,6,13.2,13.3l-0.1,17.4C669.8,1200.4,663.9,1206.3,656.6,1206.2z"/>
				<path class="st14" d="M656.1,1277.9l-29.3-0.2c-7.3,0-13.2-6-13.2-13.3l0.1-17.4c0-7.3,6-13.2,13.3-13.2l29.3,0.2
					c7.3,0,13.2,6,13.2,13.3l-0.1,17.4C669.4,1272.1,663.4,1278,656.1,1277.9z"/>
				<path class="st14" d="M655.7,1349.6l-29.3-0.2c-7.3,0-13.2-6-13.2-13.3l0.1-17.4c0-7.3,6-13.2,13.3-13.2l29.3,0.2
					c7.3,0,13.2,6,13.2,13.3l-0.1,17.4C668.9,1343.8,663,1349.7,655.7,1349.6z"/>
				<path class="st14" d="M655.2,1421.3l-29.3-0.2c-7.3,0-13.2-6-13.2-13.3l0.1-17.4c0-7.3,6-13.2,13.3-13.2l29.3,0.2
					c7.3,0,13.2,6,13.2,13.3l-0.1,17.4C668.5,1415.5,662.5,1421.4,655.2,1421.3z"/>
				<path class="st14" d="M726.9,1218.6l-29.3-0.2c-7.3,0-13.2-6-13.2-13.3l0.2-29.3c0-7.3,6-13.2,13.3-13.2l29.3,0.2
					c7.3,0,13.2,6,13.2,13.3l-0.2,29.3C740.1,1212.7,734.2,1218.6,726.9,1218.6z"/>
				<path class="st14" d="M800.5,1219l-29.3-0.2c-7.3,0-13.2-6-13.2-13.3l0.2-29.3c0-7.3,6-13.2,13.3-13.2l29.3,0.2
					c7.3,0,13.2,6,13.2,13.3l-0.2,29.3C813.8,1213.2,807.8,1219.1,800.5,1219z"/>
				<path class="st14" d="M871.5,1219.5l-29.3-0.2c-7.3,0-13.2-6-13.2-13.3l0.2-29.3c0-7.3,6-13.2,13.3-13.2l29.3,0.2
					c7.3,0,13.2,6,13.2,13.3l-0.2,29.3C884.8,1213.6,878.8,1219.5,871.5,1219.5z"/>
				<path class="st14" d="M937.8,1288.6l-29.3-0.2c-7.3,0-13.2-6-13.2-13.3l0.2-29.3c0-7.3,6-13.2,13.3-13.2l29.3,0.2
					c7.3,0,13.2,6,13.2,13.3l-0.2,29.3C951.1,1282.8,945.1,1288.7,937.8,1288.6z"/>
				<path class="st14" d="M938.3,1220.2L909,1220c-7.3,0-13.2-6-13.2-13.3l0.2-29.3c0-7.3,6-13.2,13.3-13.2l29.3,0.2
					c7.3,0,13.2,6,13.2,13.3l-0.2,29.3C951.5,1214.4,945.6,1220.3,938.3,1220.2z"/>
				<path class="st14" d="M937,1425.4l-29.3-0.2c-7.3,0-13.2-6-13.2-13.3l0.6-97.6c0-7.3,6-13.2,13.3-13.2l29.3,0.2
					c7.3,0,13.2,6,13.2,13.3l-0.6,97.6C950.3,1419.5,944.3,1425.4,937,1425.4z"/>
			</g>
		</g>
		<g>
			<path class="st7" d="M719.4,1083.5l0.1-9.4l1.4-3.6c1.2,0.3,1.9,1.1,2.2,2.2l-0.1,12.5l-0.9,0.9L719.4,1083.5z M722,1087.1
				l0.9,0.9l-0.1,12.5c-0.3,1.2-1.1,1.9-2.2,2.2l-1.3-3.6l0.1-9.4L722,1087.1z"/>
			<path class="st7" d="M735.1,1075.1l-0.1,8.5l-2.7,2.7l-0.9-0.9l0.1-11.6L735.1,1075.1z M731.3,1099.7l0.1-11.6l0.9-0.9l2.7,2.7
				l-0.1,8.5L731.3,1099.7z M746.9,1102.9l-13.4-0.1c-1.2-0.3-1.9-1.1-2.2-2.2l3.6-1.3l10.7,0.1L746.9,1102.9z M745.8,1074.3
				l-10.7-0.1l-3.6-1.4c0.3-1.2,1.1-1.9,2.2-2.2l13.3,0.1L745.8,1074.3z M746.6,1083.7l0.1-9.4l1.4-3.6c1.2,0.3,1.9,1.1,2.2,2.2
				l-0.1,12.5l-0.9,0.9L746.6,1083.7z M749.3,1087.3l0.9,0.9l-0.1,12.5c-0.3,1.2-1.1,1.9-2.2,2.2l-1.3-3.6l0.1-9.4L749.3,1087.3z"/>
			<path class="st7" d="M762.3,1075.3l-0.1,8.5l-2.7,2.7l-0.9-0.9l0.1-11.6L762.3,1075.3z M758.6,1099.8l0.1-11.6l0.9-0.9l2.7,2.7
				l-0.1,8.5L758.6,1099.8z M774.2,1103l-13.4-0.1c-1.2-0.3-1.9-1.1-2.2-2.2l3.6-1.3l10.7,0.1L774.2,1103z M773,1074.5l-10.7-0.1
				l-3.6-1.4c0.3-1.2,1.1-1.9,2.2-2.2l13.3,0.1L773,1074.5z M773.8,1083.9l0.1-9.4l1.4-3.6c1.2,0.3,1.9,1.1,2.2,2.2l-0.1,12.5
				l-0.9,0.9L773.8,1083.9z M776.5,1087.4l0.9,0.9l-0.1,12.5c-0.3,1.2-1.1,1.9-2.2,2.2l-1.3-3.6l0.1-9.4L776.5,1087.4z"/>
			<path class="st7" d="M789.5,1075.5l-0.1,8.5l-2.7,2.7l-0.9-0.9l0.1-11.6L789.5,1075.5z M785.8,1100l0.1-11.6l0.9-0.9l2.7,2.7
				l-0.1,8.5L785.8,1100z M801.4,1103.2l-13.4-0.1c-1.2-0.3-1.9-1.1-2.2-2.2l3.6-1.3l10.7,0.1L801.4,1103.2z M800.2,1074.6
				l-10.7-0.1l-3.6-1.4c0.3-1.2,1.1-1.9,2.2-2.2l13.3,0.1L800.2,1074.6z M801.1,1084l0.1-9.4l1.4-3.6c1.2,0.3,1.9,1.1,2.2,2.2
				l-0.1,12.5l-0.9,0.9L801.1,1084z M803.7,1087.6l0.9,0.9l-0.1,12.5c-0.3,1.2-1.1,1.9-2.2,2.2l-1.3-3.6l0.1-9.4L803.7,1087.6z"/>
			<path class="st7" d="M816.7,1075.6l-0.1,8.5l-2.7,2.7l-0.9-0.9l0.1-11.6L816.7,1075.6z M813,1100.2l0.1-11.6l0.9-0.9l2.7,2.7
				l-0.1,8.5L813,1100.2z M828.6,1103.4l-13.4-0.1c-1.2-0.3-1.9-1.1-2.2-2.2l3.6-1.3l10.7,0.1L828.6,1103.4z M827.5,1074.8
				l-10.7-0.1l-3.6-1.4c0.3-1.2,1.1-1.9,2.2-2.2l13.3,0.1L827.5,1074.8z M828.3,1084.2l0.1-9.4l1.4-3.6c1.2,0.3,1.9,1.1,2.2,2.2
				l-0.1,12.5l-0.9,0.9L828.3,1084.2z M830.9,1087.8l0.9,0.9l-0.1,12.5c-0.3,1.2-1.1,1.9-2.2,2.2l-1.3-3.6l0.1-9.4L830.9,1087.8z"/>
			<path class="st7" d="M844,1075.8l-0.1,8.5l-2.7,2.7l-0.9-0.9l0.1-11.6L844,1075.8z M840.2,1100.3l0.1-11.6l0.9-0.9l2.7,2.7
				l-0.1,8.5L840.2,1100.3z M855.8,1103.6l-13.4-0.1c-1.2-0.3-1.9-1.1-2.2-2.2l3.6-1.3l10.7,0.1L855.8,1103.6z M854.7,1075
				l-10.7-0.1l-3.6-1.4c0.3-1.2,1.1-1.9,2.2-2.2l13.3,0.1L854.7,1075z M855.5,1084.4l0.1-9.4l1.4-3.6c1.2,0.3,1.9,1.1,2.2,2.2
				l-0.1,12.5l-0.9,0.9L855.5,1084.4z M858.2,1087.9l0.9,0.9l-0.1,12.5c-0.3,1.2-1.1,1.9-2.2,2.2l-1.3-3.6l0.1-9.4L858.2,1087.9z"/>
			<path class="st7" d="M871.2,1076l-0.1,8.5l-2.7,2.7l-0.9-0.9l0.1-11.6L871.2,1076z M867.5,1100.5l0.1-11.6l0.9-0.9l2.7,2.7
				l-0.1,8.5L867.5,1100.5z M883.1,1103.7l-13.4-0.1c-1.2-0.3-1.9-1.1-2.2-2.2l3.6-1.3l10.7,0.1L883.1,1103.7z M881.9,1075.2
				l-10.7-0.1l-3.6-1.4c0.3-1.2,1.1-1.9,2.2-2.2l13.3,0.1L881.9,1075.2z M882.7,1084.5l0.1-9.4l1.4-3.6c1.2,0.3,1.9,1.1,2.2,2.2
				l-0.1,12.5l-0.9,0.9L882.7,1084.5z M885.4,1088.1l0.9,0.9l-0.1,12.5c-0.3,1.2-1.1,1.9-2.2,2.2l-1.3-3.6l0.1-9.4L885.4,1088.1z"/>
			<path class="st7" d="M898.4,1076.1l-0.1,8.5l-2.7,2.7l-0.9-0.9l0.1-11.6L898.4,1076.1z M894.7,1100.7l0.1-11.6l0.9-0.9l2.7,2.7
				l-0.1,8.5L894.7,1100.7z M910.3,1103.9l-13.4-0.1c-1.2-0.3-1.9-1.1-2.2-2.2l3.6-1.3l10.7,0.1L910.3,1103.9z M909.1,1075.3
				l-10.7-0.1l-3.6-1.4c0.3-1.2,1.1-1.9,2.2-2.2l13.3,0.1L909.1,1075.3z M910,1084.7l0.1-9.4l1.4-3.6c1.2,0.3,1.9,1.1,2.2,2.2
				l-0.1,12.5l-0.9,0.9L910,1084.7z M912.6,1088.3l0.9,0.9l-0.1,12.5c-0.3,1.2-1.1,1.9-2.2,2.2l-1.3-3.6l0.1-9.4L912.6,1088.3z"/>
			<path class="st7" d="M925.6,1076.3l-0.1,8.5l-2.7,2.7l-0.9-0.9l0.1-11.6L925.6,1076.3z M921.9,1100.8l0.1-11.6l0.9-0.9l2.7,2.7
				l-0.1,8.5L921.9,1100.8z M937.5,1104.1l-13.4-0.1c-1.2-0.3-1.9-1.1-2.2-2.2l3.6-1.3l10.7,0.1L937.5,1104.1z M936.3,1075.5
				l-10.7-0.1l-3.6-1.4c0.3-1.2,1.1-1.9,2.2-2.2l13.3,0.1L936.3,1075.5z M937.2,1084.9l0.1-9.4l1.4-3.6c1.2,0.3,1.9,1.1,2.2,2.2
				l-0.1,12.5l-0.9,0.9L937.2,1084.9z M939.8,1088.5l0.9,0.9l-0.1,12.5c-0.3,1.2-1.1,1.9-2.2,2.2l-1.3-3.6l0.1-9.4L939.8,1088.5z"/>
		</g>
	</g>
	<g>
		<g>
			<g>
				<g>
					<path class="st20" d="M1313.2,1432.6v14.5c0,1.2-0.4,2.2-1.1,3.1c-0.8,0.9-1.8,1.7-3.1,2.1c-0.4,0.1-0.8,0.2-1.2,0.3
						c-0.4,0.1-0.8,0.1-1.2,0.1h-275.3c-3.3,0-6.1-2.1-6.6-4.8c0-0.2-0.1-0.4-0.1-0.6c0-0.1,0-0.2,0-0.3v-14.5c0-0.1,0-0.2,0-0.3
						c0-0.2,0-0.4,0.1-0.6c0.5-2.7,3.3-4.8,6.6-4.8h275.3c0.4,0,0.8,0,1.2,0.1c0.4,0.1,0.8,0.2,1.2,0.3c1.3,0.4,2.4,1.2,3.1,2.1
						C1312.8,1430.4,1313.2,1431.5,1313.2,1432.6z"/>
					<path class="st21" d="M1178,1452.7h-147.5c-2.7,0-5-1.8-5.7-4.1c-0.1-0.2-0.1-0.4-0.2-0.6c0-0.2-0.1-0.4-0.1-0.6
						c0-0.1,0-0.2,0-0.3v-14.5c0-0.1,0-0.2,0-0.3c0-0.2,0-0.4,0.1-0.6c0-0.2,0.1-0.4,0.2-0.6c0.7-2.4,3-4.1,5.7-4.1h129.4
						C1162,1434.6,1166.8,1445,1178,1452.7z"/>
					<g>
						<rect x="1276.6" y="1427" class="st21" width="3.1" height="25.7"/>
						<rect x="1266" y="1427" class="st21" width="3.1" height="25.7"/>
						<rect x="1253.3" y="1427" class="st21" width="3.1" height="25.7"/>
						<rect x="1233.8" y="1427" class="st21" width="3.1" height="25.7"/>
						<rect x="1213.2" y="1427" class="st21" width="3.1" height="25.7"/>
						<rect x="1181.7" y="1427" class="st21" width="3.1" height="25.7"/>
						<rect x="1152.1" y="1427" class="st21" width="3.1" height="25.7"/>
						<rect x="1125.7" y="1427" class="st21" width="3.1" height="25.7"/>
						<rect x="1286.7" y="1427" class="st21" width="3.1" height="25.7"/>
						<rect x="1293.3" y="1427" class="st21" width="3.1" height="25.7"/>
						<rect x="1299.7" y="1427" class="st21" width="3.1" height="25.7"/>
						<path class="st21" d="M1307.7,1427.1v25.5c-0.4,0.1-0.8,0.1-1.2,0.1h-2V1427h2C1306.9,1427,1307.3,1427.1,1307.7,1427.1z"/>
						<path class="st21" d="M1312.1,1429.5v20.8c-0.8,0.9-1.8,1.7-3.1,2.1v-24.9C1310.2,1427.8,1311.3,1428.5,1312.1,1429.5z"/>
					</g>
				</g>
				<g>
					<path class="st20" d="M1283.8,1406.9v14.5c0,1.2-0.4,2.2-1.1,3.1c-0.2,0.2-0.4,0.5-0.6,0.7c-0.7,0.6-1.5,1.1-2.5,1.4
						c-0.4,0.1-0.8,0.2-1.2,0.3c-0.4,0.1-0.8,0.1-1.2,0.1h-275.3c-3.3,0-6.1-2.1-6.6-4.8c0-0.2-0.1-0.4-0.1-0.5c0-0.1,0-0.2,0-0.3
						v-14.5c0-0.1,0-0.2,0-0.3c0-0.2,0-0.4,0.1-0.5c0.5-2.7,3.3-4.8,6.6-4.8h275.3c0.2,0,0.4,0,0.5,0c0.1,0,0.1,0,0.2,0c0,0,0,0,0,0
						c0.1,0,0.2,0,0.2,0c0.1,0,0.1,0,0.2,0c0.4,0.1,0.8,0.2,1.2,0.3c0.2,0.1,0.5,0.2,0.7,0.3h0c0.1,0.1,0.3,0.1,0.4,0.2
						c0.1,0,0.2,0.1,0.2,0.1c0.1,0,0.2,0.1,0.2,0.1c0.3,0.2,0.6,0.4,0.8,0.6c0.1,0.1,0.2,0.1,0.2,0.2c0.1,0,0.1,0.1,0.1,0.1
						c0,0,0.1,0.1,0.1,0.1l0.1,0.1c0.1,0.1,0.2,0.2,0.2,0.3C1283.3,1404.7,1283.8,1405.8,1283.8,1406.9z"/>
					<path class="st21" d="M1148.6,1427h-147.5c-2.7,0-5-1.8-5.7-4.2c-0.1-0.2-0.1-0.4-0.2-0.6c0-0.2-0.1-0.4-0.1-0.5
						c0-0.1,0-0.2,0-0.3v-14.5c0-0.1,0-0.2,0-0.3c0-0.2,0-0.4,0.1-0.5c0-0.2,0.1-0.4,0.2-0.6c0.7-2.4,3-4.2,5.7-4.2h129.4
						c0.1,0.2,0.1,0.4,0.2,0.6C1132.8,1409.5,1137.7,1419.6,1148.6,1427z"/>
					<g>
						<rect x="1247.1" y="1401.3" class="st21" width="3.1" height="25.7"/>
						<rect x="1236.5" y="1401.3" class="st21" width="3.1" height="25.7"/>
						<rect x="1223.8" y="1401.3" class="st21" width="3.1" height="25.7"/>
						<rect x="1204.4" y="1401.3" class="st21" width="3.1" height="25.7"/>
						<rect x="1183.8" y="1401.3" class="st21" width="3.1" height="25.7"/>
						<rect x="1152.2" y="1401.3" class="st21" width="3.1" height="25.7"/>
						<rect x="1122.7" y="1401.3" class="st21" width="3.1" height="25.7"/>
						<rect x="1096.3" y="1401.3" class="st21" width="3.1" height="25.7"/>
						<rect x="1257.2" y="1401.3" class="st21" width="3.1" height="25.7"/>
						<rect x="1263.9" y="1401.3" class="st21" width="3.1" height="25.7"/>
						<rect x="1270.3" y="1401.3" class="st21" width="3.1" height="25.7"/>
						<path class="st21" d="M1278.3,1401.4v25.5c-0.4,0.1-0.8,0.1-1.2,0.1h-2v-25.7h2C1277.5,1401.3,1277.9,1401.3,1278.3,1401.4z"
							/>
						<path class="st21" d="M1282.6,1403.8v20.8c-0.8,0.9-1.8,1.7-3.1,2.1v-24.9C1280.8,1402.1,1281.9,1402.8,1282.6,1403.8z"/>
					</g>
				</g>
				<g>
					<path class="st20" d="M1298,1381.8v14.5c0,1.2-0.4,2.2-1.1,3.1c-0.8,0.9-1.8,1.7-3.1,2.1c-0.4,0.1-0.8,0.2-1.2,0.3
						c-0.4,0.1-0.8,0.1-1.2,0.1H1016c-1.1,0-2.1-0.2-3.1-0.6c-1.8-0.8-3.2-2.3-3.5-4.1c0-0.1,0-0.2-0.1-0.4c0-0.1,0-0.2,0-0.2
						c0-0.1,0-0.2,0-0.3v-14.5c0-0.1,0-0.2,0-0.3c0-0.2,0-0.4,0.1-0.5c0.5-2.7,3.3-4.8,6.6-4.8h275.3c0.4,0,0.8,0,1.2,0.1
						c0.4,0.1,0.8,0.2,1.2,0.3c1.3,0.4,2.4,1.2,3.1,2.1C1297.6,1379.6,1298,1380.7,1298,1381.8z"/>
					<path class="st21" d="M1162.8,1402h-147.5c-1,0-1.9-0.2-2.7-0.6c-1.6-0.8-2.8-2.3-3.1-4.1c0-0.1,0-0.2-0.1-0.4
						c0-0.1,0-0.2,0-0.2c0-0.1,0-0.2,0-0.3v-14.5c0-0.1,0-0.2,0-0.3c0-0.2,0-0.4,0.1-0.5c0-0.2,0.1-0.4,0.2-0.6
						c0.7-2.4,3-4.2,5.7-4.2h129.4c2,7.4,6.6,17.5,17.2,25.1C1162.2,1401.5,1162.5,1401.7,1162.8,1402z"/>
					<g>
						<rect x="1261.4" y="1376.3" class="st21" width="3.1" height="25.7"/>
						<rect x="1250.8" y="1376.3" class="st21" width="3.1" height="25.7"/>
						<rect x="1238.1" y="1376.3" class="st21" width="3.1" height="25.7"/>
						<rect x="1218.6" y="1376.3" class="st21" width="3.1" height="25.7"/>
						<rect x="1198" y="1376.3" class="st21" width="3.1" height="25.7"/>
						<rect x="1166.5" y="1376.3" class="st21" width="3.1" height="25.7"/>
						<rect x="1136.9" y="1376.3" class="st21" width="3.1" height="25.7"/>
						<rect x="1110.5" y="1376.3" class="st21" width="3.1" height="25.7"/>
						<rect x="1271.4" y="1376.3" class="st21" width="3.1" height="25.7"/>
						<rect x="1278.1" y="1376.3" class="st21" width="3.1" height="25.7"/>
						<rect x="1284.5" y="1376.3" class="st21" width="3.1" height="25.7"/>
						<path class="st21" d="M1292.5,1376.3v25.5c-0.4,0.1-0.8,0.1-1.2,0.1h-2v-25.7h2C1291.7,1376.3,1292.1,1376.3,1292.5,1376.3z"
							/>
						<path class="st21" d="M1296.8,1378.7v20.8c-0.8,0.9-1.8,1.7-3.1,2.1v-24.9C1295,1377,1296.1,1377.8,1296.8,1378.7z"/>
					</g>
				</g>
				<g>
					<path class="st20" d="M1304.6,1356.1v14.5c0,1.2-0.4,2.2-1.1,3.1c-0.1,0.1-0.2,0.2-0.3,0.3c-0.5,0.6-1.2,1-1.9,1.4
						c-0.3,0.1-0.6,0.3-0.9,0.4c-0.4,0.1-0.8,0.2-1.2,0.3c-0.2,0-0.4,0.1-0.6,0.1c-0.2,0-0.4,0-0.6,0h-275.3c-3.3,0-6.1-2.1-6.6-4.8
						c0-0.2-0.1-0.4-0.1-0.5v-15.1c0.2-2.7,2.7-4.9,5.9-5.3c0.3,0,0.5,0,0.8,0h275.3c0.2,0,0.4,0,0.6,0c0.2,0,0.4,0,0.6,0.1
						c0.4,0.1,0.8,0.2,1.2,0.3c1.3,0.4,2.4,1.2,3.1,2.1C1304.2,1353.9,1304.6,1355,1304.6,1356.1z"/>
					<path class="st21" d="M1169.4,1376.3h-147.5c-2.7,0-5-1.8-5.7-4.1c-0.1-0.2-0.1-0.4-0.2-0.6c0-0.2-0.1-0.4-0.1-0.5v-15.1
						c0.2-2.7,2.4-4.9,5.2-5.3c0.2,0,0.5,0,0.7,0h129.4c0,0,0,0,0,0C1153.4,1358.2,1158.2,1368.6,1169.4,1376.3z"/>
					<g>
						<rect x="1268" y="1350.6" class="st21" width="3.1" height="25.7"/>
						<rect x="1257.4" y="1350.6" class="st21" width="3.1" height="25.7"/>
						<rect x="1244.7" y="1350.6" class="st21" width="3.1" height="25.7"/>
						<rect x="1225.2" y="1350.6" class="st21" width="3.1" height="25.7"/>
						<rect x="1204.6" y="1350.6" class="st21" width="3.1" height="25.7"/>
						<rect x="1173" y="1350.6" class="st21" width="3.1" height="25.7"/>
						<rect x="1143.5" y="1350.6" class="st21" width="3.1" height="25.7"/>
						<rect x="1117.1" y="1350.6" class="st21" width="3.1" height="25.7"/>
						<rect x="1278" y="1350.6" class="st21" width="3.1" height="25.7"/>
						<rect x="1284.7" y="1350.6" class="st21" width="3.1" height="25.7"/>
						<rect x="1291.1" y="1350.6" class="st21" width="3.1" height="25.7"/>
						<path class="st21" d="M1299.1,1350.6v25.5c-0.4,0.1-0.8,0.1-1.2,0.1h-2v-25.7h2C1298.3,1350.5,1298.7,1350.6,1299.1,1350.6z"
							/>
						<path class="st21" d="M1303.4,1353v20.8c-0.8,0.9-1.8,1.7-3.1,2.1v-24.9C1301.6,1351.3,1302.7,1352.1,1303.4,1353z"/>
					</g>
				</g>
				<g>
					<path class="st20" d="M1284.3,1330.5v14.5c0,1.2-0.4,2.2-1.1,3.1c-0.8,0.9-1.8,1.7-3.1,2.1c-0.4,0.1-0.8,0.2-1.2,0.3
						c-0.1,0-0.3,0-0.4,0.1h-0.1c-0.1,0-0.1,0-0.2,0c-0.1,0-0.1,0-0.2,0c-0.1,0-0.2,0-0.4,0h-275.3c-3.6,0-6.5-2.4-6.7-5.3
						c0-0.1,0-0.2,0-0.3v-14.5c0-0.1,0-0.2,0-0.3c0-0.1,0-0.2,0-0.2c0.3-2.4,2.3-4.3,5-4.9c0.1,0,0.1,0,0.2,0
						c0.5-0.1,0.9-0.1,1.4-0.1h275.3c0.2,0,0.4,0,0.6,0c0.1,0,0.2,0,0.2,0c0,0,0,0,0,0h0c0.1,0,0.2,0,0.3,0c0.4,0.1,0.8,0.2,1.2,0.3
						c1.3,0.4,2.4,1.2,3.1,2.1C1283.9,1328.3,1284.3,1329.3,1284.3,1330.5z"/>
					<path class="st21" d="M1149.2,1350.6h-147.5c-3.2,0-5.8-2.4-5.9-5.3c0-0.1,0-0.2,0-0.3v-14.5c0-0.1,0-0.2,0-0.3
						c0-0.1,0-0.2,0-0.2c0.2-2.4,2.1-4.4,4.6-4.9c0.1,0,0.2,0,0.2-0.1c0.3-0.1,0.7-0.1,1.1-0.1H1131c0,0.1,0,0.1,0.1,0.2
						C1133.2,1332.6,1138,1342.9,1149.2,1350.6C1149.1,1350.6,1149.1,1350.6,1149.2,1350.6z"/>
					<g>
						<rect x="1247.7" y="1324.9" class="st21" width="3.1" height="25.7"/>
						<rect x="1237.1" y="1324.9" class="st21" width="3.1" height="25.7"/>
						<rect x="1224.4" y="1324.9" class="st21" width="3.1" height="25.7"/>
						<rect x="1205" y="1324.9" class="st21" width="3.1" height="25.7"/>
						<rect x="1184.4" y="1324.9" class="st21" width="3.1" height="25.7"/>
						<rect x="1152.8" y="1324.9" class="st21" width="3.1" height="25.7"/>
						<rect x="1123.3" y="1324.9" class="st21" width="3.1" height="25.7"/>
						<rect x="1096.9" y="1324.9" class="st21" width="3.1" height="25.7"/>
						<rect x="1257.8" y="1324.9" class="st21" width="3.1" height="25.7"/>
						<rect x="1264.5" y="1324.9" class="st21" width="3.1" height="25.7"/>
						<rect x="1270.9" y="1324.9" class="st21" width="3.1" height="25.7"/>
						<path class="st21" d="M1278.9,1325v25.5c-0.4,0.1-0.8,0.1-1.2,0.1h-2v-25.7h2C1278.1,1324.9,1278.5,1324.9,1278.9,1325z"/>
						<path class="st21" d="M1283.2,1327.4v20.8c-0.8,0.9-1.8,1.7-3.1,2.1v-24.9C1281.4,1325.7,1282.4,1326.4,1283.2,1327.4z"/>
					</g>
				</g>
				<g>
					<path class="st20" d="M1283.8,1305v14.5c0,1.2-0.4,2.2-1.1,3.1c-0.2,0.2-0.4,0.5-0.6,0.7c-0.7,0.6-1.5,1.1-2.5,1.4
						c-0.3,0.1-0.6,0.2-0.9,0.2h0c0,0,0,0,0,0c-0.1,0-0.2,0-0.2,0c-0.4,0.1-0.8,0.1-1.2,0.1h-275.3c-0.3,0-0.6,0-0.9-0.1
						c-0.1,0-0.2,0-0.3,0c-2.8-0.4-5-2.3-5.4-4.7c0-0.2,0-0.3-0.1-0.5c0-0.1,0-0.2,0-0.3V1305c0-0.1,0-0.2,0-0.3
						c0-0.2,0-0.4,0.1-0.5c0.5-2.7,3.3-4.8,6.6-4.8h275.3c0.2,0,0.4,0,0.5,0c0,0,0.1,0,0.1,0c0.1,0,0.1,0,0.2,0c0.1,0,0.2,0,0.2,0
						c0.1,0,0.1,0,0.2,0c0.4,0.1,0.8,0.2,1.2,0.3c0.2,0.1,0.5,0.2,0.7,0.3h0c0.9,0.4,1.6,0.9,2.2,1.5c0.1,0.1,0.2,0.2,0.2,0.3
						C1283.3,1302.7,1283.8,1303.8,1283.8,1305z"/>
					<path class="st21" d="M1148.6,1325.1h-147.5c-0.1,0-0.2,0-0.3,0c-0.1,0-0.3,0-0.4,0c-2.7-0.3-4.8-2.3-5.2-4.8
						c0-0.2,0-0.3-0.1-0.5c0-0.1,0-0.2,0-0.3V1305c0-0.1,0-0.2,0-0.3c0-0.2,0-0.4,0.1-0.5c0-0.2,0.1-0.4,0.2-0.6
						c0.7-2.4,3-4.2,5.7-4.2h129.4c0.1,0.2,0.1,0.4,0.2,0.6c2.1,7.4,6.9,17.4,17.7,24.9C1148.4,1325,1148.5,1325,1148.6,1325.1z"/>
					<g>
						<rect x="1247.1" y="1299.4" class="st21" width="3.1" height="25.7"/>
						<rect x="1236.5" y="1299.4" class="st21" width="3.1" height="25.7"/>
						<rect x="1223.8" y="1299.4" class="st21" width="3.1" height="25.7"/>
						<rect x="1204.4" y="1299.4" class="st21" width="3.1" height="25.7"/>
						<rect x="1183.8" y="1299.4" class="st21" width="3.1" height="25.7"/>
						<rect x="1152.2" y="1299.4" class="st21" width="3.1" height="25.7"/>
						<rect x="1122.7" y="1299.4" class="st21" width="3.1" height="25.7"/>
						<rect x="1096.3" y="1299.4" class="st21" width="3.1" height="25.7"/>
						<rect x="1257.2" y="1299.4" class="st21" width="3.1" height="25.7"/>
						<rect x="1263.9" y="1299.4" class="st21" width="3.1" height="25.7"/>
						<rect x="1270.3" y="1299.4" class="st21" width="3.1" height="25.7"/>
						<path class="st21" d="M1278.3,1299.5v25.5c-0.4,0.1-0.8,0.1-1.2,0.1h-2v-25.7h2C1277.5,1299.4,1277.9,1299.4,1278.3,1299.5z"
							/>
						<path class="st21" d="M1282.6,1301.8v20.8c-0.8,0.9-1.8,1.7-3.1,2.1v-24.9C1280.8,1300.2,1281.9,1300.9,1282.6,1301.8z"/>
					</g>
				</g>
				<g>
					<path class="st20" d="M1298,1279.9v14.5c0,1.2-0.4,2.2-1.1,3.1c-0.8,0.9-1.8,1.7-3.1,2.1c-0.4,0.1-0.8,0.2-1.2,0.3
						c-0.4,0.1-0.8,0.1-1.2,0.1H1016c-1.1,0-2.1-0.2-3.1-0.6c-1.8-0.8-3.2-2.3-3.5-4.1c0-0.1,0-0.2-0.1-0.4c0-0.1,0-0.2,0-0.2
						c0-0.1,0-0.2,0-0.3v-14.5c0-0.1,0-0.2,0-0.3c0-0.2,0-0.4,0.1-0.5c0.5-2.7,3.3-4.8,6.6-4.8h275.3c0.4,0,0.8,0,1.2,0.1
						c0.4,0.1,0.8,0.2,1.2,0.3c1.3,0.4,2.4,1.2,3.1,2.1C1297.6,1277.7,1298,1278.7,1298,1279.9z"/>
					<path class="st21" d="M1162.8,1300h-147.5c-1,0-1.9-0.2-2.7-0.6c-1.6-0.8-2.8-2.3-3.1-4.1c0-0.1,0-0.2-0.1-0.4
						c0-0.1,0-0.2,0-0.2c0-0.1,0-0.2,0-0.3v-14.5c0-0.1,0-0.2,0-0.3c0-0.2,0-0.4,0.1-0.5c0-0.2,0.1-0.4,0.2-0.6
						c0.7-2.4,3-4.2,5.7-4.2h129.4c2,7.4,6.6,17.5,17.2,25.1C1162.2,1299.6,1162.5,1299.8,1162.8,1300z"/>
					<g>
						<rect x="1261.4" y="1274.3" class="st21" width="3.1" height="25.7"/>
						<rect x="1250.8" y="1274.3" class="st21" width="3.1" height="25.7"/>
						<rect x="1238.1" y="1274.3" class="st21" width="3.1" height="25.7"/>
						<rect x="1218.6" y="1274.3" class="st21" width="3.1" height="25.7"/>
						<rect x="1198" y="1274.3" class="st21" width="3.1" height="25.7"/>
						<rect x="1166.5" y="1274.3" class="st21" width="3.1" height="25.7"/>
						<rect x="1136.9" y="1274.3" class="st21" width="3.1" height="25.7"/>
						<rect x="1110.5" y="1274.3" class="st21" width="3.1" height="25.7"/>
						<rect x="1271.4" y="1274.3" class="st21" width="3.1" height="25.7"/>
						<rect x="1278.1" y="1274.3" class="st21" width="3.1" height="25.7"/>
						<rect x="1284.5" y="1274.3" class="st21" width="3.1" height="25.7"/>
						<path class="st21" d="M1292.5,1274.4v25.5c-0.4,0.1-0.8,0.1-1.2,0.1h-2v-25.7h2C1291.7,1274.3,1292.1,1274.3,1292.5,1274.4z"
							/>
						<path class="st21" d="M1296.8,1276.8v20.8c-0.8,0.9-1.8,1.7-3.1,2.1v-24.9C1295,1275.1,1296.1,1275.8,1296.8,1276.8z"/>
					</g>
				</g>
				<g>
					<path class="st20" d="M1320.5,1254.2v14.5c0,1.2-0.4,2.2-1.1,3.1l0,0c-0.1,0.1-0.2,0.2-0.3,0.3c-0.4,0.4-0.9,0.8-1.5,1.2
						c-0.3,0.2-0.6,0.3-0.9,0.4c0,0,0,0,0,0c-0.1,0.1-0.3,0.1-0.5,0.2c-0.4,0.1-0.8,0.2-1.2,0.3c-0.4,0.1-0.8,0.1-1.2,0.1h-275.3
						c-3.3,0-6.1-2.1-6.6-4.8c0-0.2-0.1-0.4-0.1-0.5c0-0.1,0-0.2,0-0.3v-14.5c0-0.1,0-0.2,0-0.3c0.2-2.7,2.7-4.9,5.9-5.3
						c0.3,0,0.5,0,0.8,0h275.3c0.4,0,0.8,0,1.2,0.1c0.4,0.1,0.8,0.2,1.2,0.3c1.1,0.4,2.1,1,2.8,1.7c0.1,0.1,0.2,0.2,0.3,0.3l0,0
						C1320.1,1252,1320.5,1253,1320.5,1254.2z"/>
					<path class="st21" d="M1185.3,1274.3h-147.5c-2.7,0-5-1.8-5.7-4.2c-0.1-0.2-0.1-0.4-0.2-0.6c0-0.2-0.1-0.4-0.1-0.5
						c0-0.1,0-0.2,0-0.3v-14.5c0-0.1,0-0.2,0-0.3c0.1-2.7,2.4-4.9,5.2-5.3c0.2,0,0.5,0,0.7,0h129.4c0,0,0,0,0,0
						C1169.3,1256.2,1174.1,1266.6,1185.3,1274.3z"/>
					<g>
						<rect x="1283.9" y="1248.6" class="st21" width="3.1" height="25.7"/>
						<rect x="1273.3" y="1248.6" class="st21" width="3.1" height="25.7"/>
						<rect x="1260.6" y="1248.6" class="st21" width="3.1" height="25.7"/>
						<rect x="1241.1" y="1248.6" class="st21" width="3.1" height="25.7"/>
						<rect x="1220.5" y="1248.6" class="st21" width="3.1" height="25.7"/>
						<rect x="1189" y="1248.6" class="st21" width="3.1" height="25.7"/>
						<rect x="1159.4" y="1248.6" class="st21" width="3.1" height="25.7"/>
						<rect x="1133" y="1248.6" class="st21" width="3.1" height="25.7"/>
						<rect x="1293.9" y="1248.6" class="st21" width="3.1" height="25.7"/>
						<rect x="1300.6" y="1248.6" class="st21" width="3.1" height="25.7"/>
						<rect x="1307" y="1248.6" class="st21" width="3.1" height="25.7"/>
						<path class="st21" d="M1315,1248.7v25.5c-0.4,0.1-0.8,0.1-1.2,0.1h-2v-25.7h2C1314.2,1248.6,1314.6,1248.6,1315,1248.7z"/>
						<path class="st21" d="M1319.3,1251.1v20.8c-0.8,0.9-1.8,1.7-3.1,2.1V1249C1317.5,1249.4,1318.6,1250.1,1319.3,1251.1z"/>
					</g>
				</g>
				<g>
					<path class="st20" d="M1284.3,1228.5v14.5c0,1.2-0.4,2.2-1.1,3.1c-0.8,0.9-1.8,1.7-3.1,2.1c-0.4,0.1-0.8,0.2-1.2,0.3
						c-0.1,0-0.3,0-0.4,0.1h-0.1c-0.1,0-0.2,0-0.3,0c-0.1,0-0.1,0-0.2,0c-0.1,0-0.2,0-0.3,0h-275.3c-2.4,0-4.5-1.1-5.7-2.7
						c-0.6-0.8-0.9-1.7-1-2.6c0-0.1,0-0.2,0-0.3v-14.5c0-0.1,0-0.2,0-0.3c0.1-2.4,2.1-4.4,4.7-5.1c0.6-0.2,1.3-0.2,1.9-0.2h275.3
						c0.1,0,0.2,0,0.4,0c0.1,0,0.1,0,0.2,0c0.2,0,0.4,0,0.7,0.1c0.4,0.1,0.8,0.2,1.2,0.3c0.2,0.1,0.4,0.1,0.6,0.2h0
						c0.7,0.3,1.4,0.7,1.9,1.2c0,0,0,0,0,0c0,0,0.1,0,0.1,0.1c0.2,0.2,0.4,0.4,0.5,0.6C1283.9,1226.3,1284.3,1227.4,1284.3,1228.5z"
						/>
					<path class="st21" d="M1149.2,1248.6h-147.5c-2.1,0-3.9-1-5-2.5c-0.6-0.8-0.9-1.8-1-2.8c0-0.1,0-0.2,0-0.3v-14.5
						c0-0.1,0-0.2,0-0.3c0.1-2.6,2.1-4.7,4.7-5.2c0.4-0.1,0.8-0.1,1.2-0.1H1131c0.1,0.2,0.1,0.4,0.2,0.6
						C1133.4,1231,1138.2,1241.1,1149.2,1248.6C1149.1,1248.6,1149.1,1248.6,1149.2,1248.6z"/>
					<g>
						<rect x="1247.7" y="1222.9" class="st21" width="3.1" height="25.7"/>
						<rect x="1237.1" y="1222.9" class="st21" width="3.1" height="25.7"/>
						<rect x="1224.4" y="1222.9" class="st21" width="3.1" height="25.7"/>
						<rect x="1205" y="1222.9" class="st21" width="3.1" height="25.7"/>
						<rect x="1184.4" y="1222.9" class="st21" width="3.1" height="25.7"/>
						<rect x="1152.8" y="1222.9" class="st21" width="3.1" height="25.7"/>
						<rect x="1123.3" y="1222.9" class="st21" width="3.1" height="25.7"/>
						<rect x="1096.9" y="1222.9" class="st21" width="3.1" height="25.7"/>
						<rect x="1257.8" y="1222.9" class="st21" width="3.1" height="25.7"/>
						<rect x="1264.5" y="1222.9" class="st21" width="3.1" height="25.7"/>
						<rect x="1270.9" y="1222.9" class="st21" width="3.1" height="25.7"/>
						<path class="st21" d="M1278.9,1223v25.5c-0.4,0.1-0.8,0.1-1.2,0.1h-2v-25.7h2C1278.1,1222.9,1278.5,1223,1278.9,1223z"/>
						<path class="st21" d="M1283.2,1225.4v20.8c-0.8,0.9-1.8,1.7-3.1,2.1v-24.9C1281.4,1223.7,1282.4,1224.5,1283.2,1225.4z"/>
					</g>
				</g>
				<g>
					<path class="st20" d="M1304.6,1203.4v14.5c0,1.2-0.4,2.2-1.1,3.1c-0.8,0.9-1.8,1.7-3.1,2.1c-0.4,0.1-0.8,0.2-1.2,0.3
						c-0.4,0.1-0.8,0.1-1.2,0.1h-275.3c-1.1,0-2.1-0.2-3-0.6c-2-0.8-3.4-2.5-3.7-4.5c0-0.1,0-0.2,0-0.2c0-0.1,0-0.2,0-0.3v-14.5
						c0-0.1,0-0.2,0-0.3c0.2-2.7,2.7-4.9,5.9-5.3c0.3,0,0.5,0,0.8,0h275.3c0.4,0,0.8,0,1.2,0.1c0.4,0.1,0.8,0.2,1.2,0.3
						c1.3,0.4,2.4,1.2,3.1,2.1C1304.2,1201.2,1304.6,1202.3,1304.6,1203.4z"/>
					<path class="st21" d="M1169.4,1223.5h-147.5c-1,0-1.9-0.2-2.7-0.6c-1.8-0.8-3.1-2.5-3.3-4.5c0-0.1,0-0.2,0-0.2
						c0-0.1,0-0.2,0-0.3v-14.5c0-0.1,0-0.2,0-0.3c0.1-2.7,2.4-4.9,5.2-5.3c0.2,0,0.5,0,0.7,0h129.4c0,0,0,0,0,0
						c2,7.4,6.6,17.5,17.3,25.1C1168.8,1223.1,1169.1,1223.3,1169.4,1223.5z"/>
					<g>
						<rect x="1268" y="1197.8" class="st21" width="3.1" height="25.7"/>
						<rect x="1257.4" y="1197.8" class="st21" width="3.1" height="25.7"/>
						<rect x="1244.7" y="1197.8" class="st21" width="3.1" height="25.7"/>
						<rect x="1225.2" y="1197.8" class="st21" width="3.1" height="25.7"/>
						<rect x="1204.6" y="1197.8" class="st21" width="3.1" height="25.7"/>
						<rect x="1173" y="1197.8" class="st21" width="3.1" height="25.7"/>
						<rect x="1143.5" y="1197.8" class="st21" width="3.1" height="25.7"/>
						<rect x="1117.1" y="1197.8" class="st21" width="3.1" height="25.7"/>
						<rect x="1278" y="1197.8" class="st21" width="3.1" height="25.7"/>
						<rect x="1284.7" y="1197.8" class="st21" width="3.1" height="25.7"/>
						<rect x="1291.1" y="1197.8" class="st21" width="3.1" height="25.7"/>
						<path class="st21" d="M1299.1,1197.9v25.5c-0.4,0.1-0.8,0.1-1.2,0.1h-2v-25.7h2C1298.3,1197.8,1298.7,1197.9,1299.1,1197.9z"
							/>
						<path class="st21" d="M1303.4,1200.3v20.8c-0.8,0.9-1.8,1.7-3.1,2.1v-24.9C1301.6,1198.6,1302.7,1199.4,1303.4,1200.3z"/>
					</g>
				</g>
				<g>
					<path class="st20" d="M1313.2,1177.8v14.5c0,1.2-0.4,2.2-1.1,3.1c-0.8,0.9-1.8,1.7-3.1,2.1c-0.4,0.1-0.8,0.2-1.2,0.3
						c-0.1,0-0.3,0-0.4,0c-0.1,0-0.1,0-0.2,0c-0.1,0-0.1,0-0.2,0c-0.1,0-0.2,0-0.4,0h-275.3c-3.5,0-6.5-2.4-6.7-5.3
						c0-0.1,0-0.2,0-0.3v-14.5c0-0.1,0-0.2,0-0.3c0.2-2.9,3.1-5.3,6.7-5.3h275.3c0.4,0,0.8,0,1.2,0.1c0.4,0.1,0.8,0.2,1.2,0.3
						c1.3,0.4,2.4,1.2,3.1,2.1C1312.8,1175.5,1313.2,1176.6,1313.2,1177.8z"/>
					<path class="st21" d="M1178,1197.9h-147.5c-3.2,0-5.8-2.4-5.9-5.3c0-0.1,0-0.2,0-0.3v-14.5c0-0.1,0-0.2,0-0.3
						c0.2-2.9,2.8-5.3,5.9-5.3h129.4C1162,1179.7,1166.8,1190.2,1178,1197.9C1178,1197.8,1178,1197.9,1178,1197.9z"/>
					<g>
						<rect x="1276.6" y="1172.2" class="st21" width="3.1" height="25.7"/>
						<rect x="1266" y="1172.2" class="st21" width="3.1" height="25.7"/>
						<rect x="1253.3" y="1172.2" class="st21" width="3.1" height="25.7"/>
						<rect x="1233.8" y="1172.2" class="st21" width="3.1" height="25.7"/>
						<rect x="1213.2" y="1172.2" class="st21" width="3.1" height="25.7"/>
						<rect x="1181.7" y="1172.2" class="st21" width="3.1" height="25.7"/>
						<rect x="1152.1" y="1172.2" class="st21" width="3.1" height="25.7"/>
						<rect x="1125.7" y="1172.2" class="st21" width="3.1" height="25.7"/>
						<rect x="1286.7" y="1172.2" class="st21" width="3.1" height="25.7"/>
						<rect x="1293.3" y="1172.2" class="st21" width="3.1" height="25.7"/>
						<rect x="1299.7" y="1172.2" class="st21" width="3.1" height="25.7"/>
						<path class="st21" d="M1307.7,1172.3v25.5c-0.4,0.1-0.8,0.1-1.2,0.1h-2v-25.7h2C1306.9,1172.2,1307.3,1172.2,1307.7,1172.3z"
							/>
						<path class="st21" d="M1312.1,1174.6v20.8c-0.8,0.9-1.8,1.7-3.1,2.1v-24.9C1310.2,1173,1311.3,1173.7,1312.1,1174.6z"/>
					</g>
				</g>
			</g>
			<g>
				<path class="st22" d="M1225.9,1025.7c0,0-14.5,20.4-27.7,20.6s-33.4-9.4-33.4-9.4s-12.2-27.1-3.9-37.7c0,0,8.3-3.6,16.9,2.8
					c1.5,1.1,3,2.5,4.5,4.3c2.1,2.5,4.5,4,7,4.7c9.5,2.9,20.7-3.9,24.9,2.6c2.5,3.8,5.1,6.7,7.3,8.7
					C1224,1024.6,1225.9,1025.7,1225.9,1025.7z"/>
				<path class="st22" d="M1037.4,1172.6c0,0,51.1-123.8,143.1-126.2c0,0,84.9,9.4,89.6,126.2H1037.4z"/>
				<path class="st23" d="M1155.3,1050.1c0,0,36.9,8.2,48.3,3.4c0,0,1.7-15.4-13.8-13.3c-10.6,1.5-17.6-3.6-21.6-5.7
					C1162.4,1031.6,1153.8,1043.7,1155.3,1050.1z"/>
				<path class="st24" d="M1187.4,1026.9c-2.4,1.8-9.6-24.9-9.6-24.9c1.5,1.1,3,2.5,4.5,4.3c2.1,2.5,4.5,4,7,4.7
					C1189.3,1011.8,1189.7,1025.2,1187.4,1026.9z"/>
				<path class="st24" d="M1221.5,1022.3c-0.5,0.3-17.6,10.5-19.9,10.5c-2.4,0,12.6-19.2,12.6-19.2
					C1216.6,1017.4,1219.3,1020.3,1221.5,1022.3z"/>
				<path class="st25" d="M1087.4,1138c-0.9-0.8,36.2-54.6,46.4-55c10.2-0.4,33.2,11.8,49.8,13.4c16.6,1.6,32.7-3.1,35.9,6.7
					c3.1,9.8,11.8,44.7,6.5,50.2C1220.6,1158.8,1107.8,1155.4,1087.4,1138z"/>
			</g>
		</g>
		<path class="st26" d="M1122.3,1324.9c0,0.1,0,0.1,0,0.2c-0.5,8.6-1.9,17.2-4.1,25.5c0,0,0,0,0,0c-0.3,1.2-0.7,2.4-1,3.6
			c-2.3,7.6-5.3,15-9.1,22.1c-4.7,8.9-10.5,17.3-17.3,25.1c-0.2,0.2-0.4,0.4-0.6,0.6c-8.5,9.6-18.7,18-30.2,25.1
			c-2.4,1.5-4.9,2.9-7.5,4.3c-1.7,0.9-3.5,1.8-5.2,2.6c-1.7,1-3.4,1.8-5.1,2.8c-4.9,3-10.9,5.3-17.5,7.2v-11.3c0-0.1,0-0.2,0-0.3
			c0-0.2,0-0.4,0.1-0.6c0-0.2,0.1-0.4,0.2-0.6c0.7-2.4,3-4.1,5.7-4.1h-29.4c-2.7,0-5-1.8-5.7-4.2c-0.1-0.2-0.1-0.4-0.2-0.6
			c0-0.2-0.1-0.4-0.1-0.5c0-0.1,0-0.2,0-0.3v-14.5c0-0.1,0-0.2,0-0.3c0-0.2,0-0.4,0.1-0.5c0-0.2,0.1-0.4,0.2-0.6
			c0.7-2.4,3-4.2,5.7-4.2h11.5c-1.6-0.8-2.8-2.3-3.1-4.1c0-0.1,0-0.2-0.1-0.4c0-0.1,0-0.2,0-0.2c0-0.1,0-0.2,0-0.3v-14.5
			c0-0.1,0-0.2,0-0.3c0-0.2,0-0.4,0.1-0.5c0-0.2,0.1-0.4,0.2-0.6c0.7-2.4,3-4.2,5.7-4.2h6.6c-2.7,0-5-1.8-5.7-4.1
			c-0.1-0.2-0.1-0.4-0.2-0.6c0-0.2-0.1-0.4-0.1-0.5v-15.1c0.2-2.7,2.4-4.9,5.2-5.3h-19.5c-3.2,0-5.8-2.4-5.9-5.3c0-0.1,0-0.2,0-0.3
			v-14.5c0-0.1,0-0.2,0-0.3c0-0.1,0-0.2,0-0.2c0.2-2.4,2.1-4.4,4.6-4.9c-2.7-0.3-4.8-2.3-5.2-4.8c0-0.2,0-0.3-0.1-0.5
			c0-0.1,0-0.2,0-0.3V1305c0-0.1,0-0.2,0-0.3c0-0.2,0-0.4,0.1-0.5c0-0.2,0.1-0.4,0.2-0.6c0.7-2.4,3-4.2,5.7-4.2h11.5
			c-1.6-0.8-2.8-2.3-3.1-4.1c0-0.1,0-0.2-0.1-0.4c0-0.1,0-0.2,0-0.2c0-0.1,0-0.2,0-0.3v-14.5c0-0.1,0-0.2,0-0.3c0-0.2,0-0.4,0.1-0.5
			c0-0.2,0.1-0.4,0.2-0.6c0.7-2.4,3-4.2,5.7-4.2h22.5c-2.7,0-5-1.8-5.7-4.2c-0.1-0.2-0.1-0.4-0.2-0.6c0-0.2-0.1-0.4-0.1-0.5
			c0-0.1,0-0.2,0-0.3v-14.5c0-0.1,0-0.2,0-0.3c0.1-2.7,2.4-4.9,5.2-5.3h-35.4c-2.1,0-3.9-1-5-2.5l0-0.1l3.7-22.8l0-0.1l5.3-32.5
			c6.2,0.8,12.3,2.1,18.2,3.7c0.4,0.1,0.7,0.2,1,0.3c0,0,0,0,0.1,0c3.5,1,6.9,2.1,10.3,3.3c0,0,0.1,0,0.1,0
			c15.6,5.7,30.1,14.1,42.7,25.1c0.2,0.2,0.4,0.4,0.7,0.6c6.6,5.8,12.6,12.2,17.9,19.3c1.1,1.4,2.1,2.8,3.1,4.3c0.3,0.5,0.7,1,1,1.5
			c0,0,0,0,0,0c1.6,2.4,3.2,4.9,4.6,7.4c3.4,6,6.3,12.1,8.7,18.3c3.2,8.2,5.4,16.6,6.7,25.1c0,0.2,0.1,0.4,0.1,0.6
			C1122.4,1308.3,1122.8,1316.6,1122.3,1324.9z"/>
		<g>
			
				<ellipse transform="matrix(0.7071 -0.7071 0.7071 0.7071 -647.2993 1060.53)" class="st27" cx="956.5" cy="1311.6" rx="135.4" ry="135.4"/>
			<path class="st20" d="M1016.6,1433c-1.7,1-3.4,2-5.1,3c-0.6,0.3-1.2,0.6-1.8,0.9c-1.3,0.7-2.7,1.4-4,2.1
				c-64.5,31.7-143.1,7.4-178.2-56.2c-33.4-60.7-15.5-135.8,39.4-175.2c4.4-3.1,9-6.1,13.8-8.7c1.7-1,3.5-1.9,5.2-2.7
				c1.7-0.9,3.4-1.7,5.2-2.4c5.3-2.4,10.7-4.4,16.1-6c8.1-2.4,16.3-4.1,24.5-4.9c25.5-2.7,51.2,2,73.9,13.1
				c24.1,11.8,45,30.9,59,56.2C1099.9,1315.7,1078.3,1395.5,1016.6,1433z"/>
			<g>
				<path class="st21" d="M947.1,1440.1c-11.3,0-22.7-1.6-33.9-4.8c-31.1-9-56.9-29.6-72.5-58c-15.6-28.4-19.3-61.2-10.3-92.3
					c9-31.1,29.6-56.9,58-72.5c58.6-32.3,132.5-10.9,164.8,47.7c32.3,58.6,10.9,132.5-47.7,164.8
					C987.3,1435,967.3,1440.1,947.1,1440.1z M946.8,1200.7c-19.3,0-38.8,4.7-56.8,14.6c-27.6,15.2-47.7,40.3-56.4,70.6
					c-8.8,30.3-5.2,62.2,10,89.8c15.2,27.6,40.3,47.7,70.6,56.4c30.3,8.8,62.2,5.2,89.8-10c57-31.4,77.8-103.4,46.4-160.4
					C1028.9,1222.7,988.4,1200.7,946.8,1200.7z"/>
			</g>
			<g>
				<path class="st21" d="M1006.6,1330.5c-0.3-0.7-0.6-1.3-0.8-1.9c-2.2-4.8-4.9-8.7-8.2-11.7c-3.7-3.4-8-5.9-12.9-7.6
					c-4.9-1.7-10.4-2.7-16.4-3.1c-6-0.4-12.6-0.5-19.7-0.3c-4.4,0.1-8.1,0.1-11.3-0.2c-3.1-0.3-5.8-0.9-7.9-1.7
					c-2.2-0.9-3.9-2.1-5.3-3.6c-1.4-1.5-2.5-3.4-3.4-5.5c-0.9-2.2-1.4-4.4-1.5-6.5c-0.1-2.1,0.2-4.2,1-6.1c0.8-1.9,2-3.7,3.8-5.3
					c1.7-1.6,4-3,6.9-4.2c5.3-2.1,10.2-2.1,14.8,0.1c4.6,2.2,8.3,6.9,11.2,14l27.6-11.2c-2.4-5.9-5.4-10.9-9-15
					c-3.6-4.1-7.7-7.2-12.2-9.4c-4.5-2.2-9.5-3.5-14.8-3.9c-5.3-0.4-10.9,0.2-16.6,1.7l-7.8-19.2l-15.3,6.2l7.7,19
					c-5.5,2.9-10.2,6.2-14,10c-3.8,3.8-6.8,7.9-8.8,12.3c-2.1,4.4-3.1,9.1-3.2,13.9c-0.1,4.9,0.9,9.8,2.9,14.8
					c2.4,5.8,5.4,10.4,9.1,13.8c3.7,3.4,8,5.9,12.9,7.6c4.9,1.7,10.4,2.7,16.4,3c6.1,0.3,12.7,0.3,19.8,0c4.1-0.2,7.7-0.2,10.8,0.1
					c3,0.3,5.7,0.9,7.9,1.8c2.2,0.9,4.1,2.1,5.5,3.7c1.5,1.6,2.7,3.7,3.7,6.1c0.9,2.2,1.3,4.4,1.3,6.5c0,2.2-0.5,4.2-1.5,6.2
					c-1,2-2.4,3.8-4.4,5.5c-1.9,1.7-4.4,3.1-7.4,4.3c-2.6,1.1-5.3,1.8-8.1,2.1c-2.8,0.3-5.5,0.1-8.2-0.8c-2.7-0.9-5.1-2.5-7.5-4.8
					c-2.3-2.3-4.3-5.6-6-9.8l-27.6,11.2c2.9,7.1,6.5,12.7,10.8,16.9c4.4,4.2,9.1,7.1,14.3,8.9c5.2,1.8,10.6,2.6,16.2,2.3
					c5.6-0.2,11.2-1.1,16.7-2.8l7.1,17.6l15.2-6.2l-7.2-17.6c5.5-2.9,10.2-6.2,14.2-9.9c3.6-3.5,6.5-7.2,8.5-11.2
					c0.2-0.3,0.3-0.6,0.5-1c2.1-4.4,3.2-9,3.3-13.8C1009.7,1340.8,1008.7,1335.7,1006.6,1330.5z"/>
			</g>
		</g>
	</g>
	<g>
		<g>
			<path class="st11" d="M821.1,644.3c-1.8,2-2,4.3-1.1,6.7c0,0,0,0,0,0c1.7,4.5,7,9.4,13.3,14.4c0.8,0.6,1.5,1.2,2.1,1.8
				c0.2,0.1,0.3,0.3,0.5,0.4c0.1,0.1,0.2,0.2,0.4,0.3c5.8,5.3,3.7,6.5,14.2,17.3c12,12.3,20.2,12.4,22.5,11.3c2-1-2.1-7.5-6.6-14.8
				c-0.2-0.4-0.4-0.7-0.7-1.1c-0.6-1-1.2-2-1.8-2.9c-5.3-8.8-4-13-2.8-26.2c0.9-10.7,16.3-60.1,16.3-60.1l-22.8-3.8
				c0,0-6.6,39.2-14.1,45.3c-4,3.2-8.5,3.3-12.4,5.7c-0.3,0.2-0.5,0.3-0.8,0.5C825.1,640.7,822.8,642.2,821.1,644.3z"/>
			<path class="st10" d="M821.1,644.3c-1.8,2-2,4.3-1.1,6.7c0,0,0,0,0,0c2,4.5,7.3,9.4,13.3,14.3c0.8,0.6,1.5,1.2,2.1,1.8
				c0.2,0.1,0.3,0.3,0.5,0.4c0.1,0.1,0.2,0.2,0.4,0.3c5.8,5.3,3.7,6.5,14.2,17.3c12,12.3,20.2,12.4,22.5,11.3c2-1-2.1-7.5-6.6-14.8
				c-2.3-0.8-13.1-5.1-21.3-15.5c-7.2-9.1-12.1-20.8-17-27.5c-0.3,0.2-0.5,0.3-0.8,0.5C825.1,640.7,822.8,642.2,821.1,644.3z"/>
			<path class="st11" d="M1004.7,628.7c1.5,7,11.5,5.8,22.7,3c11.2-2.8,8.5,0.5,24.5-1.4c15.9-1.9,20.7-7.9,21.2-10.2
				c0.4-2.1-7.5-2.8-15.9-3.7c-1.1-0.1-2.1-0.2-3.2-0.4c-9.5-1.1-16.6-7.2-25.3-12.2c-8.2-4.7-20.6-24.1-20.6-24.1l-21.8,1.9
				c0,0,11.6,17.3,16.1,24.9c2.6,4.4,2.5,10.3,2.3,14.9C1004.3,623.7,1004.1,626.3,1004.7,628.7z"/>
			<path class="st10" d="M1027.3,631.7c11.2-2.8,8.5,0.5,24.5-1.4c15.9-1.9,20.7-7.9,21.2-10.2c0.4-2.1-7.5-2.8-15.9-3.7l-0.1,0.2
				c0,0-9.5,6.8-22.8,7.3c-10.8,0.3-22.3-2.7-29.8-2.5c-0.2,2.5-0.3,5,0.2,7.5C1006.1,635.8,1016.1,634.5,1027.3,631.7z"/>
			<path class="st28" d="M919.9,489.6l-20,55.1l-26.2,72c0,0-7.2,0.8-14.2-1.2c-6.4-1.8-13.8-6.6-13.8-6.6s6.9-77.1,20.4-121.5
				c3.5-11.4,7.4-20.6,11.7-25.8C899.1,436.2,919.9,489.6,919.9,489.6z"/>
			<path class="st14" d="M898.5,402.4c-13.4-4.2-51.6,1.6-89.9,9.4l-8.1-13.2l-82.9-5.9c0,0-26.9,60.8-11.7,99.3
				c2.2,5.7,16,8.4,16,8.4c0,0,48.6,0.5,64.6,0.4c41.2-0.3,87-28.9,92.9-30.2c9.7-2,13.8,17.4,23.6,37.8
				c9.9,20.4,92.2,89.9,92.2,89.9s12.6,0,17.8-1.9c5.6-2.1,7.6-4.9,7.6-4.9S928.8,411.9,898.5,402.4z"/>
			<path class="st10" d="M790,155.4c-6.2-3.7-12.3-4.1-16-4c-2.6,0.1-5.3-0.1-7.9-0.5c-31.4-4-50,41.8-51,55.6
				c-1.9,25.5-15.3,29.5-34.2,45.6c-37.8,32.3-26.4,69.4-5.5,83c12.5,8.2,34.5-0.2,34.5-0.2c0.3,0.2,59.9-33.9,89.3-50.3
				C843.4,277.9,807.9,165.8,790,155.4z"/>
			<path class="st11" d="M774.4,270.9c0.1,0.1-14.5,5.2-24.3,0.9c-9.2-4-16.3-19.1-16.2-19.1c4.2-0.2,8.8-3.9,12.1-28l1.8,0.6
				l30.1,10.6c0,0-2.1,9.6-3.4,18.8C773.4,262.4,772.8,269.8,774.4,270.9z"/>
			<path class="st29" d="M777.9,235.9c0,0-1.3,6.8-3.1,16.4c-17.3-3-24.5-17.7-27-27L777.9,235.9z"/>
			<path class="st11" d="M782.5,245.4c0,0-41.1-5.2-37.4-30.8c3.6-25.5,0.8-43.4,27.2-41.2c26.4,2.3,30.1,12.7,30.9,21.5
				C804,203.9,793.3,246.1,782.5,245.4z"/>
			<path class="st10" d="M801.6,181.1c0,0-26.1,22.8-44,24.8c-17.9,2-24.7-3.7-24.7-3.7s10.5-8.8,16.7-23c1.8-4.2,5.8-7.1,10.3-7.5
				C772.7,170.4,796.9,169.8,801.6,181.1z"/>
			<path class="st10" d="M785.1,179.1c0,0,8.9,8.4,11.7,14.7c2.7,6.1,3.6,20.6,1.5,26.4c0,0,13.5-26.7,5.7-39.6
				C795.7,167,785.1,179.1,785.1,179.1z"/>
			<path class="st9" d="M809.4,331.1c-0.7,83.1,0.1,65.7-8.9,73.7c-2.2,1.9-8.3,3.1-16.4,3.7c-25.5,1.9-70.3-2-72-6.7
				c-6-16.3-1.9-21.3-7-46.2c-0.5-2.6-1.2-5.5-1.9-8.6c-4.2-17.1-8.2-22.9,6.1-50.5c13-25,26.5-45.4,27.7-44.6
				c34.8,20.4,37.5,3,37.5,3S809.7,290.5,809.4,331.1z"/>
			<path class="st14" d="M899.9,544.7l-26.2,72c0,0-7.2,0.8-14.2-1.2c-6.4-1.8-13.8-6.6-13.8-6.6s6.9-77.1,20.4-121.5L899.9,544.7z"
				/>
			<path class="st9" d="M774.5,254.7c0,0,35.7,5.8,40.1,21.1c4.3,15.3,29.6,105.5,29.6,105.5s-18.1,3.4-26.6-4.9
				c-8.4-8.3-29.7-77.6-29.7-77.6L774.5,254.7z"/>
			<path class="st30" d="M784.1,408.4c-25.5,1.9-70.3-2-72-6.7c-6-16.3-1.9-21.3-7-46.2l12-34.7c0,0-1.8,38.5,9.7,48.6
				c11.4,10.1,46.7,19.2,52.2,27.7C781.8,401.1,783.6,405.2,784.1,408.4z"/>
			<path class="st11" d="M754.8,392.4c0,0,25.1-5.8,29.2-3.6c4.1,2.2,14,10.3,15.3,13.1c1.3,2.8-9-2.1-12.4-3
				c-2.2-0.6-7.8,1.5-10.7,2.4c-11.8,4-19.1,2.1-19.1,2.1L754.8,392.4z"/>
			<path class="st9" d="M737,251.7c0,0-33.7,2.3-45.3,18.7c-16.3,23.1-48.2,121-29.4,134c21.2,14.5,95.9,3.2,95.9,3.2
				s2.4-11.6-1.1-17.3c-3.5-5.6-59.8-14.3-62.4-16.9c-2.6-2.6,32.1-50.9,32-58.7C726.5,306.9,737,251.7,737,251.7z"/>
			<path class="st11" d="M785.2,395.9c0,0,5.3,6.8,7,7.6c1.7,0.8,2.8,0.6,2.8,0.6l-3.6-6.4L785.2,395.9z"/>
			<path class="st11" d="M783.9,388.9l15.4,7.3c0,0-0.6,1.1-2.5,1c-1.9-0.1-6.7-1.8-6.7-1.8L783.9,388.9z"/>
		</g>
		<g>
			<g>
				<polygon class="st10" points="789,414.4 910.1,413.5 945.9,322.7 825,323.5 				"/>
				<polygon class="st10" points="911.5,410 751.6,411.1 751.6,414.6 910.1,413.5 				"/>
			</g>
			<path class="st0" d="M879.2,368.4c0.9-3.2-1-5.8-4.2-5.7c-3.2,0-6.5,2.6-7.4,5.8c-0.9,3.2,1,5.8,4.2,5.7
				C875,374.2,878.3,371.6,879.2,368.4z"/>
		</g>
	</g>
	<g>
		<path class="st31" d="M1882.9,703.9c-15.3-5.1-26,1.3-26,1.3c-44.2,1.8-45.8,47.1-40.6,63.9c7.3,23.7-18.5,42.3,10.1,51.9
			c33.2,11.1,61-6.4,59.1-0.7C1990.3,828.6,1917.8,715.4,1882.9,703.9z"/>
		<path class="st7" d="M1837.1,924c0,0-4.2,8.3-11.8,17.9c-9.2,11.5-57.3-15.8-53.2-17.9c4.1-2.1,27.6-68.6,37.5-80.4
			c9.2-10.9,22-13.4,22-13.4L1837.1,924z"/>
		<path class="st32" d="M1999.6,1394.2c0,0,13.3,12.1,10.7,20.7c-2.6,8.6-14.6,14.4-16.2,24.9c-1.6,10.5-8.1,16.3-13.9,16.3
			s-27.8,0-27.8,0s-4.3-7.4,6.1-9.6c10.4-2.2,14.3-14.6,13.6-26.1c-0.6-11.5,1-26.8,1-26.8l22-5.1L1999.6,1394.2z"/>
		<path class="st32" d="M1887.1,1399.3c0,0,4.8,51.4-1.1,54.3l-74.7-0.2c0,0,0-8.6,12-10.5s33.1-8.9,36.6-24.6
			C1863.5,1402.7,1887.1,1399.3,1887.1,1399.3z"/>
		<path class="st7" d="M1944.5,889.4c0,0,1.1,15.7,0,34.5c-0.7,12.5-13.4,29.2-15.2,33.3c-4.5,10.4-9.6,12.1-9.6,12.1l-39.2,9.6
			l-13.8,3.4l-43.5-13c0,0-19.8-55.3-11.8-86.4c8-31.1,20.1-52.7,20.1-52.7s29.5-6.6,81.7-2.9L1944.5,889.4z"/>
		<path class="st33" d="M1948.3,924.3c-0.7,12.5-17.1,28.8-18.9,32.9c-4.5,10.4-9.6,12.1-9.6,12.1l-39.2,9.6l-10.5-14.7
			c0,0,63.5-17.7,51.5-73.6L1948.3,924.3z"/>
		<path class="st28" d="M1826.1,977.7c0,0-21.5,67-22.9,89.8s41.2,324.1,42.9,334.6c1.6,9.9,13.9,16.2,13.9,16.2s5.7,3.3,13.7,1.1
			c11.2-3.2,14.7-7,14.7-7s16.8-214.9,6.4-291.6c-10.4-76.8-10.5-143.1-10.5-143.1H1826.1z"/>
		<path class="st14" d="M1917.3,975.7c0,0,32.8,44.1,35.9,73.8c3.1,29.8,4.8,134.4,11.3,163.4c6.5,29,30.5,84.9,30.5,175.5
			c0,0-2.5,5.2-10.2,8c-2.5,0.9-5.8,1.7-9,2.5c-6.3,1.5-12.8-1.6-15.7-7.5c-16.2-32.6-67.8-137.8-70.5-159.7
			c-1.9-15.5-18.2-117.7-53.7-177.8c-8.5-14.4,5.2-71.7,5.2-71.7L1917.3,975.7z"/>
		<path class="st33" d="M1822.7,967.3c0,0,8.6,6.8,25.8,7.2c20.5,0.4,71.3-5.2,71.3-5.2s2.3,6.3,2.2,13c0,0-62.1,15.7-98,2.3
			C1823.9,984.5,1819.3,975.8,1822.7,967.3z"/>
		<g>
			<path class="st15" d="M1843.6,992.2c-5.2,0-9.4-4.8-9.4-10.6c0-5.8,4.2-10.6,9.4-10.6s9.4,4.8,9.4,10.6
				C1852.9,987.4,1848.7,992.2,1843.6,992.2z M1843.6,974.1c-3.5,0-6.3,3.4-6.3,7.5c0,4.1,2.8,7.5,6.3,7.5c3.4,0,6.3-3.4,6.3-7.5
				C1849.8,977.5,1847,974.1,1843.6,974.1z"/>
		</g>
		<polygon class="st34" points="1888.4,1011.4 1795.1,1012.3 1749.2,904.4 1842.5,903.6 		"/>
		<path class="st11" d="M1876.2,962.7l-6.8-8.4c0,0-4.6-4.1-8-4.8c-3.4-0.7-10.4-4.8-11.1-3.6c-0.7,1.2,5.4,9.4,5.4,9.4l0.3,0
			c-7,5.3-24.8,0.6-27,2.8c-2.7,2.6,3.7,8.3,7.1,11.5c3.4,3.2,13.1,8.5,20.7,6.1c5.5-1.7,14.2-3.5,14.2-3.5L1876.2,962.7z"/>
		<path class="st11" d="M1756.2,923.4c0,0,5.9-6.7,9.6-3.5c3.7,3.2-1,18.9-4.5,17.3C1757.7,935.7,1754.2,925.4,1756.2,923.4z"/>
		<path class="st7" d="M1913.3,827.2c0,0,31.1,2.2,43,31.2c11.9,29,33.8,76.7,29.1,96.7c-1.9,8-24.5,35.6-119,18
			c0,0,0.8-9.9,7.2-14.5c0,0,66.6-21.4,66.5-25.6c-0.2-8-9-15-46.2-52.2C1883.7,870.6,1913.3,827.2,1913.3,827.2z"/>
		<path class="st11" d="M1892.7,828.7c0.9-1.2-0.3-5.2-1.7-12.5c-1.3-6.6-3.6-16.9-3.5-28.4l-2,0.3l-33.1,5.6c0,0,0.8,8.8,0.8,17.2
			c0,0.1,0,0.1,0,0.2c0,7.2-2,18.2,0.5,19.6C1866.2,838.1,1889.2,833.4,1892.7,828.7z"/>
		<path class="st35" d="M1852.4,793.7c0,0,0.7,12.5,0.7,20.8c18.5-0.4,28.4-18.4,32.4-26.4L1852.4,793.7z"/>
		<path class="st11" d="M1850.4,808.6c0,0,43.4-6.2,39.1-33.1c-4.3-27-1.5-45.9-29.4-43.1c-27.9,2.8-31.6,13.9-32.4,23.3
			S1839,809.5,1850.4,808.6z"/>
		<path class="st31" d="M1840.3,734.8c0,0,16.9,29.7,35.8,31.5s26-4.3,26-4.3s-15.7-8.9-21.7-27.7
			C1880.4,734.3,1846.8,718.4,1840.3,734.8z"/>
		<path class="st31" d="M1843.6,736.9c0,0-8.3,4.7-10.9,11.7c-2.5,6.8-4.2,15.6-1.9,25.7c0,0-12.4-20.1-4.3-33.8
			C1835.2,725.9,1843.6,736.9,1843.6,736.9z"/>
	</g>
	<path class="st36" d="M2553.4,1458.7H2.9c-1.6,0-2.9-1.3-2.9-2.9v-1.1c0-1.6,1.3-2.9,2.9-2.9h2550.4c1.6,0,2.9,1.3,2.9,2.9v1.1
		C2556.3,1457.4,2555,1458.7,2553.4,1458.7z"/>
</g>
</svg>
